<?xml version="1.0" encoding="utf-8"?>
<!-- Generator: Adobe Illustrator 21.0.0, SVG Export Plug-In . SVG Version: 6.00 Build 0)  -->
<svg version="1.1" id="Layer_1" xmlns="http://www.w3.org/2000/svg" xmlns:xlink="http://www.w3.org/1999/xlink" x="0px" y="0px"
	 viewBox="0 0 388.5 301.5" style="enable-background:new 0 0 388.5 301.5;" xml:space="preserve">
<style type="text/css">
	.st0{fill:#FFFFFF;}
	.st1{clip-path:url(#SVGID_2_);fill:none;stroke:#CCCCCC;stroke-linecap:round;stroke-linejoin:round;stroke-miterlimit:10;}
	.st2{fill:#262626;}
	.st3{clip-path:url(#SVGID_4_);fill:none;stroke:#CCCCCC;stroke-linecap:round;stroke-linejoin:round;stroke-miterlimit:10;}
	.st4{clip-path:url(#SVGID_6_);fill:none;stroke:#CCCCCC;stroke-linecap:round;stroke-linejoin:round;stroke-miterlimit:10;}
	.st5{clip-path:url(#SVGID_8_);fill:none;stroke:#CCCCCC;stroke-linecap:round;stroke-linejoin:round;stroke-miterlimit:10;}
	.st6{clip-path:url(#SVGID_10_);fill:none;stroke:#CCCCCC;stroke-linecap:round;stroke-linejoin:round;stroke-miterlimit:10;}
	.st7{clip-path:url(#SVGID_12_);fill:none;stroke:#CCCCCC;stroke-linecap:round;stroke-linejoin:round;stroke-miterlimit:10;}
	.st8{clip-path:url(#SVGID_14_);fill:none;stroke:#CCCCCC;stroke-linecap:round;stroke-linejoin:round;stroke-miterlimit:10;}
	.st9{clip-path:url(#SVGID_16_);fill:none;stroke:#CCCCCC;stroke-linecap:round;stroke-linejoin:round;stroke-miterlimit:10;}
	.st10{clip-path:url(#SVGID_18_);fill:none;stroke:#CCCCCC;stroke-linecap:round;stroke-linejoin:round;stroke-miterlimit:10;}
	.st11{clip-path:url(#SVGID_20_);fill:none;stroke:#CCCCCC;stroke-linecap:round;stroke-linejoin:round;stroke-miterlimit:10;}
	.st12{clip-path:url(#SVGID_22_);fill:none;stroke:#CCCCCC;stroke-linecap:round;stroke-linejoin:round;stroke-miterlimit:10;}
	.st13{clip-path:url(#SVGID_24_);fill:none;stroke:#CCCCCC;stroke-linecap:round;stroke-linejoin:round;stroke-miterlimit:10;}
	.st14{clip-path:url(#SVGID_26_);fill:none;stroke:#CCCCCC;stroke-linecap:round;stroke-linejoin:round;stroke-miterlimit:10;}
	.st15{clip-path:url(#SVGID_28_);}
	.st16{opacity:0.4;fill:#4C72B0;}
	.st17{opacity:0.4;fill:none;stroke:#FFFFFF;stroke-miterlimit:10;}
	.st18{clip-path:url(#SVGID_30_);}
	.st19{clip-path:url(#SVGID_32_);}
	.st20{clip-path:url(#SVGID_34_);}
	.st21{clip-path:url(#SVGID_36_);}
	.st22{clip-path:url(#SVGID_38_);}
	.st23{clip-path:url(#SVGID_40_);}
	.st24{clip-path:url(#SVGID_42_);}
	.st25{clip-path:url(#SVGID_44_);}
	.st26{clip-path:url(#SVGID_46_);}
	.st27{clip-path:url(#SVGID_48_);}
	.st28{clip-path:url(#SVGID_50_);}
	.st29{clip-path:url(#SVGID_52_);}
	.st30{clip-path:url(#SVGID_54_);}
	.st31{clip-path:url(#SVGID_56_);}
	.st32{clip-path:url(#SVGID_58_);}
	.st33{clip-path:url(#SVGID_60_);}
	.st34{clip-path:url(#SVGID_62_);}
	.st35{clip-path:url(#SVGID_64_);}
	.st36{clip-path:url(#SVGID_66_);}
	.st37{clip-path:url(#SVGID_68_);}
	.st38{clip-path:url(#SVGID_70_);}
	.st39{clip-path:url(#SVGID_72_);}
	.st40{clip-path:url(#SVGID_74_);}
	.st41{clip-path:url(#SVGID_76_);}
	.st42{clip-path:url(#SVGID_78_);}
	.st43{clip-path:url(#SVGID_80_);}
	.st44{clip-path:url(#SVGID_82_);}
	.st45{clip-path:url(#SVGID_84_);}
	.st46{clip-path:url(#SVGID_86_);}
	.st47{clip-path:url(#SVGID_88_);}
	.st48{clip-path:url(#SVGID_90_);}
	.st49{clip-path:url(#SVGID_92_);}
	.st50{clip-path:url(#SVGID_94_);}
	.st51{clip-path:url(#SVGID_96_);}
	.st52{clip-path:url(#SVGID_98_);}
	.st53{clip-path:url(#SVGID_100_);}
	.st54{clip-path:url(#SVGID_102_);}
	.st55{clip-path:url(#SVGID_104_);}
	.st56{clip-path:url(#SVGID_106_);}
	.st57{clip-path:url(#SVGID_108_);}
	.st58{clip-path:url(#SVGID_110_);}
	.st59{clip-path:url(#SVGID_112_);}
	.st60{clip-path:url(#SVGID_114_);}
	.st61{clip-path:url(#SVGID_116_);}
	.st62{clip-path:url(#SVGID_118_);}
	.st63{clip-path:url(#SVGID_120_);}
	.st64{clip-path:url(#SVGID_122_);}
	.st65{clip-path:url(#SVGID_124_);}
	.st66{clip-path:url(#SVGID_126_);}
	.st67{clip-path:url(#SVGID_128_);}
	.st68{opacity:0.4;fill:#DD8452;}
	.st69{clip-path:url(#SVGID_130_);}
	.st70{clip-path:url(#SVGID_132_);}
	.st71{clip-path:url(#SVGID_134_);}
	.st72{clip-path:url(#SVGID_136_);}
	.st73{clip-path:url(#SVGID_138_);}
	.st74{clip-path:url(#SVGID_140_);}
	.st75{clip-path:url(#SVGID_142_);}
	.st76{clip-path:url(#SVGID_144_);}
	.st77{clip-path:url(#SVGID_146_);}
	.st78{clip-path:url(#SVGID_148_);}
	.st79{clip-path:url(#SVGID_150_);}
	.st80{clip-path:url(#SVGID_152_);}
	.st81{clip-path:url(#SVGID_154_);}
	.st82{clip-path:url(#SVGID_156_);}
	.st83{clip-path:url(#SVGID_158_);}
	.st84{clip-path:url(#SVGID_160_);}
	.st85{clip-path:url(#SVGID_162_);}
	.st86{clip-path:url(#SVGID_164_);}
	.st87{clip-path:url(#SVGID_166_);}
	.st88{clip-path:url(#SVGID_168_);}
	.st89{clip-path:url(#SVGID_170_);}
	.st90{clip-path:url(#SVGID_172_);}
	.st91{clip-path:url(#SVGID_174_);}
	.st92{clip-path:url(#SVGID_176_);}
	.st93{clip-path:url(#SVGID_178_);}
	.st94{clip-path:url(#SVGID_180_);}
	.st95{clip-path:url(#SVGID_182_);}
	.st96{clip-path:url(#SVGID_184_);}
	.st97{clip-path:url(#SVGID_186_);}
	.st98{clip-path:url(#SVGID_188_);}
	.st99{clip-path:url(#SVGID_190_);}
	.st100{clip-path:url(#SVGID_192_);}
	.st101{clip-path:url(#SVGID_194_);}
	.st102{clip-path:url(#SVGID_196_);}
	.st103{clip-path:url(#SVGID_198_);}
	.st104{clip-path:url(#SVGID_200_);}
	.st105{clip-path:url(#SVGID_202_);}
	.st106{clip-path:url(#SVGID_204_);}
	.st107{clip-path:url(#SVGID_206_);}
	.st108{clip-path:url(#SVGID_208_);}
	.st109{clip-path:url(#SVGID_210_);}
	.st110{clip-path:url(#SVGID_212_);}
	.st111{clip-path:url(#SVGID_214_);}
	.st112{clip-path:url(#SVGID_216_);}
	.st113{clip-path:url(#SVGID_218_);}
	.st114{clip-path:url(#SVGID_220_);}
	.st115{clip-path:url(#SVGID_222_);}
	.st116{clip-path:url(#SVGID_224_);}
	.st117{clip-path:url(#SVGID_226_);}
	
		.st118{clip-path:url(#SVGID_228_);fill:none;stroke:#4C72B0;stroke-width:1.5;stroke-linecap:round;stroke-linejoin:round;stroke-miterlimit:10;}
	
		.st119{clip-path:url(#SVGID_230_);fill:none;stroke:#DD8452;stroke-width:1.5;stroke-linecap:round;stroke-linejoin:round;stroke-miterlimit:10;}
	.st120{fill:none;stroke:#CCCCCC;stroke-width:1.25;stroke-linecap:square;stroke-miterlimit:10;}
	.st121{opacity:0.8;fill:#FFFFFF;}
	.st122{opacity:0.8;fill:none;stroke:#CCCCCC;stroke-miterlimit:10;}
</style>
<rect x="30.7" y="0.6" class="st0" width="357.1" height="266.1"/>
<g>
	<defs>
		<rect id="SVGID_1_" x="30.7" y="0.6" width="357.1" height="266.1"/>
	</defs>
	<clipPath id="SVGID_2_">
		<use xlink:href="#SVGID_1_"  style="overflow:visible;"/>
	</clipPath>
	<line class="st1" x1="50.4" y1="266.7" x2="50.4" y2="0.6"/>
</g>
<path class="st2" d="M44.2,280.2c0,1.3,0.1,2.2,0.5,2.6c0.3,0.4,0.7,0.6,1.1,0.6c0.4,0,0.8-0.2,1.1-0.6c0.3-0.4,0.5-1.3,0.5-2.6
	s-0.2-2.2-0.5-2.6c-0.3-0.4-0.7-0.6-1.1-0.6c-0.5,0-0.8,0.2-1.1,0.6C44.3,278.1,44.2,278.9,44.2,280.2 M43.2,280.2
	c0-0.9,0.1-1.7,0.3-2.2c0.2-0.6,0.5-1,0.8-1.3c0.4-0.3,0.9-0.5,1.4-0.5c0.4,0,0.8,0.1,1.1,0.3c0.3,0.2,0.6,0.4,0.8,0.7
	s0.4,0.7,0.5,1.2c0.1,0.5,0.2,1.1,0.2,1.9c0,0.9-0.1,1.7-0.3,2.2c-0.2,0.6-0.5,1-0.8,1.3c-0.4,0.3-0.9,0.5-1.4,0.5
	c-0.8,0-1.4-0.3-1.8-0.8C43.4,282.8,43.2,281.7,43.2,280.2"/>
<polyline class="st2" points="49.8,284.1 49.8,283 50.9,283 50.9,284.1 49.8,284.1 "/>
<path class="st2" d="M53.4,280.2c0,1.3,0.1,2.2,0.5,2.6c0.3,0.4,0.7,0.6,1.1,0.6c0.4,0,0.8-0.2,1.1-0.6c0.3-0.4,0.5-1.3,0.5-2.6
	s-0.2-2.2-0.5-2.6c-0.3-0.4-0.7-0.6-1.1-0.6c-0.5,0-0.8,0.2-1.1,0.6C53.5,278.1,53.4,278.9,53.4,280.2 M52.4,280.2
	c0-0.9,0.1-1.7,0.3-2.2c0.2-0.6,0.5-1,0.8-1.3c0.4-0.3,0.9-0.5,1.4-0.5c0.4,0,0.8,0.1,1.1,0.3c0.3,0.2,0.6,0.4,0.8,0.7
	s0.4,0.7,0.5,1.2c0.1,0.5,0.2,1.1,0.2,1.9c0,0.9-0.1,1.7-0.3,2.2c-0.2,0.6-0.5,1-0.8,1.3c-0.4,0.3-0.9,0.5-1.4,0.5
	c-0.8,0-1.4-0.3-1.8-0.8C52.6,282.8,52.4,281.7,52.4,280.2"/>
<g>
	<defs>
		<rect id="SVGID_3_" x="30.7" y="0.6" width="357.1" height="266.1"/>
	</defs>
	<clipPath id="SVGID_4_">
		<use xlink:href="#SVGID_3_"  style="overflow:visible;"/>
	</clipPath>
	<line class="st3" x1="113.5" y1="266.7" x2="113.5" y2="0.6"/>
</g>
<path class="st2" d="M107.3,280.2c0,1.3,0.1,2.2,0.5,2.6c0.3,0.4,0.7,0.6,1.1,0.6c0.4,0,0.8-0.2,1.1-0.6c0.3-0.4,0.5-1.3,0.5-2.6
	s-0.2-2.2-0.5-2.6c-0.3-0.4-0.7-0.6-1.1-0.6c-0.5,0-0.8,0.2-1.1,0.6C107.5,278.1,107.3,278.9,107.3,280.2 M106.3,280.2
	c0-0.9,0.1-1.7,0.3-2.2c0.2-0.6,0.5-1,0.8-1.3c0.4-0.3,0.9-0.5,1.4-0.5c0.4,0,0.8,0.1,1.1,0.3c0.3,0.2,0.6,0.4,0.8,0.7
	s0.4,0.7,0.5,1.2c0.1,0.5,0.2,1.1,0.2,1.9c0,0.9-0.1,1.7-0.3,2.2c-0.2,0.6-0.5,1-0.8,1.3c-0.4,0.3-0.9,0.5-1.4,0.5
	c-0.8,0-1.4-0.3-1.8-0.8C106.6,282.8,106.3,281.7,106.3,280.2"/>
<polyline class="st2" points="113,284.1 113,283 114.1,283 114.1,284.1 113,284.1 "/>
<path class="st2" d="M115.5,282l1-0.1c0.1,0.5,0.2,0.9,0.5,1.1c0.3,0.3,0.6,0.4,1,0.4c0.5,0,0.9-0.2,1.2-0.5
	c0.3-0.4,0.5-0.8,0.5-1.4c0-0.6-0.2-1-0.5-1.3c-0.3-0.3-0.7-0.5-1.2-0.5c-0.3,0-0.6,0.1-0.8,0.2s-0.5,0.3-0.6,0.5l-0.9-0.1l0.8-4
	h3.9v0.9h-3.1l-0.4,2.1c0.5-0.3,1-0.5,1.5-0.5c0.7,0,1.3,0.2,1.7,0.7c0.5,0.5,0.7,1.1,0.7,1.8c0,0.7-0.2,1.3-0.6,1.8
	c-0.5,0.6-1.2,0.9-2.1,0.9c-0.7,0-1.3-0.2-1.7-0.6C115.8,283.2,115.6,282.7,115.5,282"/>
<g>
	<defs>
		<rect id="SVGID_5_" x="30.7" y="0.6" width="357.1" height="266.1"/>
	</defs>
	<clipPath id="SVGID_6_">
		<use xlink:href="#SVGID_5_"  style="overflow:visible;"/>
	</clipPath>
	<line class="st4" x1="176.7" y1="266.7" x2="176.7" y2="0.6"/>
</g>
<path class="st2" d="M173.1,284.1h-1V278c-0.2,0.2-0.5,0.5-0.9,0.7c-0.4,0.2-0.7,0.4-1,0.5v-0.9c0.5-0.3,1-0.6,1.4-0.9
	c0.4-0.4,0.7-0.7,0.9-1.1h0.6V284.1"/>
<polyline class="st2" points="176.1,284.1 176.1,283 177.2,283 177.2,284.1 176.1,284.1 "/>
<path class="st2" d="M179.6,280.2c0,1.3,0.1,2.2,0.5,2.6c0.3,0.4,0.7,0.6,1.1,0.6c0.4,0,0.8-0.2,1.1-0.6c0.3-0.4,0.5-1.3,0.5-2.6
	s-0.2-2.2-0.5-2.6c-0.3-0.4-0.7-0.6-1.1-0.6c-0.5,0-0.8,0.2-1.1,0.6C179.8,278.1,179.6,278.9,179.6,280.2 M178.7,280.2
	c0-0.9,0.1-1.7,0.3-2.2c0.2-0.6,0.5-1,0.8-1.3c0.4-0.3,0.9-0.5,1.4-0.5c0.4,0,0.8,0.1,1.1,0.3c0.3,0.2,0.6,0.4,0.8,0.7
	c0.2,0.3,0.4,0.7,0.5,1.2c0.1,0.5,0.2,1.1,0.2,1.9c0,0.9-0.1,1.7-0.3,2.2c-0.2,0.6-0.5,1-0.8,1.3c-0.4,0.3-0.9,0.5-1.4,0.5
	c-0.8,0-1.4-0.3-1.8-0.8C178.9,282.8,178.7,281.7,178.7,280.2"/>
<g>
	<defs>
		<rect id="SVGID_7_" x="30.7" y="0.6" width="357.1" height="266.1"/>
	</defs>
	<clipPath id="SVGID_8_">
		<use xlink:href="#SVGID_7_"  style="overflow:visible;"/>
	</clipPath>
	<line class="st5" x1="239.8" y1="266.7" x2="239.8" y2="0.6"/>
</g>
<path class="st2" d="M236.3,284.1h-1V278c-0.2,0.2-0.6,0.5-0.9,0.7c-0.4,0.2-0.7,0.4-1,0.5v-0.9c0.5-0.3,1-0.6,1.4-0.9
	c0.4-0.4,0.7-0.7,0.9-1.1h0.6V284.1"/>
<polyline class="st2" points="239.3,284.1 239.3,283 240.4,283 240.4,284.1 239.3,284.1 "/>
<path class="st2" d="M241.8,282l1-0.1c0.1,0.5,0.2,0.9,0.5,1.1c0.3,0.3,0.6,0.4,1,0.4c0.5,0,0.9-0.2,1.2-0.5
	c0.3-0.4,0.5-0.8,0.5-1.4c0-0.6-0.2-1-0.5-1.3c-0.3-0.3-0.7-0.5-1.2-0.5c-0.3,0-0.6,0.1-0.8,0.2c-0.3,0.1-0.5,0.3-0.6,0.5l-0.9-0.1
	l0.8-4h3.9v0.9h-3.1l-0.4,2.1c0.5-0.3,1-0.5,1.5-0.5c0.7,0,1.3,0.2,1.7,0.7c0.5,0.5,0.7,1.1,0.7,1.8c0,0.7-0.2,1.3-0.6,1.8
	c-0.5,0.6-1.2,0.9-2.1,0.9c-0.7,0-1.3-0.2-1.7-0.6C242.1,283.2,241.9,282.7,241.8,282"/>
<g>
	<defs>
		<rect id="SVGID_9_" x="30.7" y="0.6" width="357.1" height="266.1"/>
	</defs>
	<clipPath id="SVGID_10_">
		<use xlink:href="#SVGID_9_"  style="overflow:visible;"/>
	</clipPath>
	<line class="st6" x1="303" y1="266.7" x2="303" y2="0.6"/>
</g>
<path class="st2" d="M300.8,283.2v0.9h-5.2c0-0.2,0-0.5,0.1-0.7c0.1-0.4,0.3-0.7,0.6-1c0.3-0.3,0.7-0.7,1.3-1.2
	c0.9-0.7,1.4-1.2,1.7-1.7c0.3-0.4,0.5-0.8,0.5-1.2s-0.1-0.7-0.4-1c-0.3-0.3-0.6-0.4-1.1-0.4c-0.5,0-0.8,0.1-1.1,0.4
	c-0.3,0.3-0.4,0.7-0.4,1.2l-1-0.1c0.1-0.7,0.3-1.3,0.8-1.7c0.4-0.4,1-0.6,1.8-0.6s1.4,0.2,1.8,0.6s0.7,0.9,0.7,1.6
	c0,0.3-0.1,0.6-0.2,0.9c-0.1,0.3-0.3,0.6-0.6,1c-0.3,0.3-0.8,0.8-1.5,1.4c-0.6,0.5-1,0.8-1.1,1c-0.2,0.2-0.3,0.4-0.4,0.5H300.8"/>
<polyline class="st2" points="302.4,284.1 302.4,283 303.5,283 303.5,284.1 302.4,284.1 "/>
<path class="st2" d="M305.9,280.2c0,1.3,0.1,2.2,0.5,2.6c0.3,0.4,0.7,0.6,1.1,0.6c0.4,0,0.8-0.2,1.1-0.6c0.3-0.4,0.5-1.3,0.5-2.6
	s-0.2-2.2-0.5-2.6c-0.3-0.4-0.7-0.6-1.1-0.6c-0.5,0-0.8,0.2-1.1,0.6C306.1,278.1,305.9,278.9,305.9,280.2 M304.9,280.2
	c0-0.9,0.1-1.7,0.3-2.2c0.2-0.6,0.5-1,0.8-1.3c0.4-0.3,0.9-0.5,1.4-0.5c0.4,0,0.8,0.1,1.1,0.3c0.3,0.2,0.6,0.4,0.8,0.7
	c0.2,0.3,0.4,0.7,0.5,1.2c0.1,0.5,0.2,1.1,0.2,1.9c0,0.9-0.1,1.7-0.3,2.2c-0.2,0.6-0.5,1-0.8,1.3c-0.4,0.3-0.9,0.5-1.4,0.5
	c-0.8,0-1.4-0.3-1.8-0.8C305.2,282.8,304.9,281.7,304.9,280.2"/>
<g>
	<defs>
		<rect id="SVGID_11_" x="30.7" y="0.6" width="357.1" height="266.1"/>
	</defs>
	<clipPath id="SVGID_12_">
		<use xlink:href="#SVGID_11_"  style="overflow:visible;"/>
	</clipPath>
	<line class="st7" x1="366.1" y1="266.7" x2="366.1" y2="0.6"/>
</g>
<path class="st2" d="M364,283.2v0.9h-5.2c0-0.2,0-0.5,0.1-0.7c0.1-0.4,0.3-0.7,0.6-1c0.3-0.3,0.7-0.7,1.3-1.2
	c0.9-0.7,1.4-1.2,1.7-1.7c0.3-0.4,0.5-0.8,0.5-1.2s-0.1-0.7-0.4-1c-0.3-0.3-0.6-0.4-1.1-0.4c-0.5,0-0.8,0.1-1.1,0.4
	c-0.3,0.3-0.4,0.7-0.4,1.2l-1-0.1c0.1-0.7,0.3-1.3,0.8-1.7c0.4-0.4,1-0.6,1.8-0.6s1.4,0.2,1.8,0.6s0.7,0.9,0.7,1.6
	c0,0.3-0.1,0.6-0.2,0.9c-0.1,0.3-0.3,0.6-0.6,1c-0.3,0.3-0.8,0.8-1.5,1.4c-0.6,0.5-1,0.8-1.1,1c-0.2,0.2-0.3,0.4-0.4,0.5H364"/>
<polyline class="st2" points="365.6,284.1 365.6,283 366.7,283 366.7,284.1 365.6,284.1 "/>
<path class="st2" d="M368.1,282l1-0.1c0.1,0.5,0.2,0.9,0.5,1.1c0.3,0.3,0.6,0.4,1,0.4c0.5,0,0.9-0.2,1.2-0.5
	c0.3-0.4,0.5-0.8,0.5-1.4c0-0.6-0.2-1-0.5-1.3c-0.3-0.3-0.7-0.5-1.2-0.5c-0.3,0-0.6,0.1-0.8,0.2c-0.3,0.1-0.5,0.3-0.6,0.5l-0.9-0.1
	l0.8-4h3.9v0.9h-3.1l-0.4,2.1c0.5-0.3,1-0.5,1.5-0.5c0.7,0,1.3,0.2,1.7,0.7c0.5,0.5,0.7,1.1,0.7,1.8c0,0.7-0.2,1.3-0.6,1.8
	c-0.5,0.6-1.2,0.9-2.1,0.9c-0.7,0-1.3-0.2-1.7-0.6C368.4,283.2,368.1,282.7,368.1,282"/>
<path class="st2" d="M174,298h1.8c0.6,0,1,0,1.3-0.2c0.3-0.1,0.6-0.3,0.8-0.5c0.3-0.3,0.5-0.6,0.6-1.1c0.1-0.5,0.2-1,0.2-1.7
	c0-0.9-0.2-1.6-0.4-2.1c-0.3-0.5-0.6-0.8-1.1-1c-0.3-0.1-0.8-0.2-1.5-0.2H174V298 M172.9,299v-8.6h3c0.7,0,1.2,0,1.5,0.1
	c0.5,0.1,0.9,0.3,1.3,0.6c0.5,0.4,0.8,0.9,1,1.5c0.2,0.6,0.3,1.3,0.3,2c0,0.7-0.1,1.2-0.2,1.7c-0.2,0.5-0.3,0.9-0.6,1.2
	c-0.2,0.3-0.5,0.6-0.8,0.8c-0.3,0.2-0.6,0.3-1,0.4c-0.4,0.1-0.9,0.1-1.4,0.1H172.9"/>
<path class="st2" d="M181.4,299v-6.2h1.1v6.2H181.4 M181.4,291.7v-1.2h1.1v1.2H181.4"/>
<path class="st2" d="M183.7,297.2l1-0.2c0,0.4,0.2,0.7,0.5,1c0.3,0.2,0.6,0.3,1.1,0.3s0.8-0.1,1.1-0.3c0.2-0.2,0.3-0.4,0.3-0.7
	c0-0.2-0.1-0.4-0.3-0.6c-0.1-0.1-0.5-0.2-1.1-0.4c-0.8-0.2-1.3-0.4-1.6-0.5c-0.3-0.1-0.5-0.3-0.7-0.6c-0.2-0.3-0.2-0.5-0.2-0.8
	c0-0.3,0.1-0.5,0.2-0.8c0.1-0.2,0.3-0.4,0.5-0.6c0.2-0.1,0.4-0.2,0.7-0.3s0.6-0.1,0.9-0.1c0.5,0,0.9,0.1,1.3,0.2
	c0.4,0.1,0.6,0.3,0.8,0.6c0.2,0.2,0.3,0.6,0.4,1l-1,0.1c0-0.3-0.2-0.6-0.4-0.7c-0.2-0.2-0.5-0.3-0.9-0.3c-0.5,0-0.8,0.1-1,0.2
	c-0.2,0.2-0.3,0.3-0.3,0.6c0,0.1,0,0.3,0.1,0.4c0.1,0.1,0.2,0.2,0.4,0.3c0.1,0,0.4,0.1,0.9,0.3c0.7,0.2,1.3,0.4,1.6,0.5
	c0.3,0.1,0.5,0.3,0.7,0.6s0.3,0.5,0.3,0.9c0,0.4-0.1,0.7-0.3,1c-0.2,0.3-0.5,0.5-0.9,0.7s-0.8,0.3-1.3,0.3c-0.8,0-1.4-0.2-1.8-0.5
	C184,298.3,183.8,297.8,183.7,297.2"/>
<path class="st2" d="M192.4,298.1l0.2,0.9c-0.3,0-0.6,0.1-0.8,0.1c-0.4,0-0.7-0.1-0.9-0.2c-0.2-0.1-0.4-0.3-0.4-0.5
	c-0.1-0.2-0.1-0.6-0.1-1.2v-3.6h-0.8v-0.8h0.8v-1.5l1-0.6v2.2h1.1v0.8h-1.1v3.6c0,0.3,0,0.5,0.1,0.6c0,0.1,0.1,0.2,0.2,0.2
	c0.1,0,0.2,0.1,0.4,0.1C192,298.1,192.2,298.1,192.4,298.1"/>
<path class="st2" d="M197.4,295.9c-0.4,0.2-1,0.3-1.7,0.4c-0.4,0.1-0.7,0.1-0.9,0.2c-0.2,0.1-0.3,0.2-0.4,0.3
	c-0.1,0.2-0.1,0.3-0.1,0.5c0,0.3,0.1,0.5,0.3,0.7c0.2,0.2,0.5,0.3,0.9,0.3s0.8-0.1,1.1-0.3s0.6-0.4,0.7-0.7c0.1-0.2,0.2-0.6,0.2-1.1
	V295.9 M197.5,298.3c-0.4,0.3-0.8,0.6-1.1,0.7c-0.4,0.1-0.8,0.2-1.2,0.2c-0.7,0-1.2-0.2-1.6-0.5c-0.4-0.3-0.6-0.8-0.6-1.3
	c0-0.3,0.1-0.6,0.2-0.8c0.1-0.3,0.3-0.5,0.6-0.6c0.2-0.1,0.5-0.3,0.8-0.3c0.2,0,0.5-0.1,0.9-0.2c0.9-0.1,1.5-0.2,1.9-0.4
	c0-0.1,0-0.2,0-0.3c0-0.4-0.1-0.7-0.3-0.9c-0.3-0.2-0.7-0.4-1.2-0.4c-0.5,0-0.9,0.1-1.1,0.3c-0.2,0.2-0.4,0.5-0.5,0.9l-1-0.1
	c0.1-0.4,0.3-0.8,0.5-1.1c0.2-0.3,0.5-0.5,0.9-0.6c0.4-0.1,0.9-0.2,1.4-0.2c0.5,0,1,0.1,1.3,0.2s0.6,0.3,0.7,0.5
	c0.2,0.2,0.3,0.4,0.3,0.7c0,0.2,0.1,0.5,0.1,1v1.4c0,1,0,1.6,0.1,1.9c0,0.3,0.1,0.5,0.3,0.7h-1.1
	C197.6,298.8,197.5,298.6,197.5,298.3"/>
<path class="st2" d="M200.1,299v-6.2h0.9v0.9c0.5-0.7,1.1-1,2-1c0.4,0,0.7,0.1,1,0.2c0.3,0.1,0.6,0.3,0.7,0.5
	c0.2,0.2,0.3,0.5,0.3,0.8c0,0.2,0.1,0.5,0.1,1v3.8h-1.1v-3.8c0-0.4,0-0.7-0.1-1c-0.1-0.2-0.2-0.4-0.4-0.5c-0.2-0.1-0.5-0.2-0.7-0.2
	c-0.5,0-0.9,0.1-1.2,0.4c-0.3,0.3-0.5,0.8-0.5,1.6v3.4H200.1"/>
<path class="st2" d="M210.8,296.8l1,0.1c-0.1,0.7-0.4,1.3-0.9,1.7c-0.5,0.4-1,0.6-1.7,0.6c-0.9,0-1.5-0.3-2.1-0.8
	c-0.5-0.6-0.8-1.3-0.8-2.4c0-0.7,0.1-1.3,0.3-1.8c0.2-0.5,0.6-0.9,1-1.1c0.5-0.3,0.9-0.4,1.5-0.4c0.7,0,1.2,0.2,1.7,0.5
	c0.4,0.3,0.7,0.8,0.8,1.5l-1,0.2c-0.1-0.4-0.3-0.7-0.5-0.9c-0.3-0.2-0.6-0.3-0.9-0.3c-0.5,0-1,0.2-1.3,0.6c-0.3,0.4-0.5,1-0.5,1.8
	c0,0.8,0.2,1.5,0.5,1.8c0.3,0.4,0.7,0.6,1.3,0.6c0.4,0,0.8-0.1,1-0.4C210.6,297.7,210.7,297.3,210.8,296.8"/>
<path class="st2" d="M213.6,295.3h3.5c0-0.5-0.2-0.9-0.4-1.2c-0.3-0.4-0.8-0.6-1.3-0.6c-0.5,0-0.9,0.2-1.2,0.5
	C213.8,294.4,213.6,294.8,213.6,295.3 M217,297l1.1,0.1c-0.2,0.6-0.5,1.1-1,1.5c-0.5,0.3-1.1,0.5-1.8,0.5c-0.9,0-1.6-0.3-2.2-0.8
	c-0.5-0.6-0.8-1.3-0.8-2.4c0-1,0.3-1.9,0.8-2.4c0.5-0.6,1.2-0.9,2.1-0.9c0.8,0,1.5,0.3,2,0.9s0.8,1.4,0.8,2.4c0,0.1,0,0.2,0,0.3
	h-4.6c0,0.7,0.2,1.2,0.6,1.6c0.3,0.4,0.8,0.5,1.3,0.5c0.4,0,0.7-0.1,1-0.3C216.6,297.8,216.9,297.5,217,297"/>
<path class="st2" d="M224.8,301.5c-0.6-0.7-1.1-1.6-1.5-2.6c-0.4-1-0.6-2-0.6-3.1c0-0.9,0.1-1.8,0.4-2.7c0.3-1,0.9-2,1.6-3h0.8
	c-0.5,0.8-0.8,1.4-0.9,1.7c-0.2,0.5-0.4,1.1-0.6,1.7c-0.2,0.7-0.3,1.5-0.3,2.2c0,1.9,0.6,3.7,1.8,5.6H224.8"/>
<path class="st2" d="M226.8,299v-6.2h0.9v0.9c0.5-0.7,1.1-1,2-1c0.4,0,0.7,0.1,1,0.2c0.3,0.1,0.6,0.3,0.7,0.5s0.3,0.5,0.3,0.8
	c0,0.2,0.1,0.5,0.1,1v3.8h-1.1v-3.8c0-0.4,0-0.7-0.1-1c-0.1-0.2-0.2-0.4-0.4-0.5c-0.2-0.1-0.5-0.2-0.7-0.2c-0.5,0-0.9,0.1-1.2,0.4
	c-0.3,0.3-0.5,0.8-0.5,1.6v3.4H226.8"/>
<path class="st2" d="M233.4,299v-6.2h0.9v0.9c0.2-0.3,0.4-0.5,0.8-0.7c0.3-0.2,0.7-0.3,1.1-0.3c0.5,0,0.8,0.1,1.1,0.3
	c0.3,0.2,0.5,0.5,0.6,0.8c0.5-0.7,1.1-1.1,1.9-1.1c0.6,0,1.1,0.2,1.4,0.5s0.5,0.9,0.5,1.6v4.3h-1.1v-3.9c0-0.4,0-0.7-0.1-0.9
	c-0.1-0.2-0.2-0.3-0.4-0.5c-0.2-0.1-0.4-0.2-0.6-0.2c-0.4,0-0.8,0.2-1.1,0.4c-0.3,0.3-0.4,0.8-0.4,1.4v3.6h-1.1v-4
	c0-0.5-0.1-0.8-0.3-1.1c-0.2-0.2-0.5-0.3-0.8-0.3c-0.3,0-0.6,0.1-0.8,0.2c-0.3,0.2-0.4,0.4-0.5,0.7c-0.1,0.3-0.2,0.7-0.2,1.3v3.2
	H233.4"/>
<path class="st2" d="M244.1,301.5h-0.8c1.2-1.9,1.8-3.7,1.8-5.6c0-0.7-0.1-1.5-0.3-2.2c-0.1-0.6-0.3-1.1-0.6-1.7
	c-0.2-0.3-0.5-0.9-0.9-1.8h0.8c0.7,1,1.3,2,1.6,3c0.3,0.9,0.5,1.8,0.5,2.7c0,1.1-0.2,2.1-0.6,3.1C245.2,300,244.7,300.8,244.1,301.5
	"/>
<g>
	<defs>
		<rect id="SVGID_13_" x="30.7" y="0.6" width="357.1" height="266.1"/>
	</defs>
	<clipPath id="SVGID_14_">
		<use xlink:href="#SVGID_13_"  style="overflow:visible;"/>
	</clipPath>
	<line class="st8" x1="30.7" y1="266.7" x2="387.9" y2="266.7"/>
</g>
<path class="st2" d="M16.6,266.8c0,1.3,0.1,2.2,0.5,2.6c0.3,0.4,0.7,0.6,1.1,0.6c0.4,0,0.8-0.2,1.1-0.6c0.3-0.4,0.5-1.3,0.5-2.6
	s-0.2-2.2-0.5-2.6c-0.3-0.4-0.7-0.6-1.1-0.6c-0.5,0-0.8,0.2-1.1,0.6C16.7,264.6,16.6,265.5,16.6,266.8 M15.6,266.8
	c0-0.9,0.1-1.7,0.3-2.2c0.2-0.6,0.5-1,0.8-1.3c0.4-0.3,0.9-0.5,1.4-0.5c0.4,0,0.8,0.1,1.1,0.3c0.3,0.2,0.6,0.4,0.8,0.7
	s0.4,0.7,0.5,1.2c0.1,0.5,0.2,1.1,0.2,1.9c0,0.9-0.1,1.7-0.3,2.2c-0.2,0.6-0.5,1-0.8,1.3c-0.4,0.3-0.9,0.5-1.4,0.5
	c-0.8,0-1.4-0.3-1.8-0.8C15.8,269.3,15.6,268.3,15.6,266.8"/>
<g>
	<defs>
		<rect id="SVGID_15_" x="30.7" y="0.6" width="357.1" height="266.1"/>
	</defs>
	<clipPath id="SVGID_16_">
		<use xlink:href="#SVGID_15_"  style="overflow:visible;"/>
	</clipPath>
	<line class="st9" x1="30.7" y1="228.3" x2="387.9" y2="228.3"/>
</g>
<path class="st2" d="M19.2,232.3h-1v-6.2c-0.2,0.2-0.6,0.5-0.9,0.7c-0.4,0.2-0.7,0.4-1,0.5v-0.9c0.5-0.3,1-0.6,1.4-0.9
	c0.4-0.4,0.7-0.7,0.9-1.1h0.6V232.3"/>
<g>
	<defs>
		<rect id="SVGID_17_" x="30.7" y="0.6" width="357.1" height="266.1"/>
	</defs>
	<clipPath id="SVGID_18_">
		<use xlink:href="#SVGID_17_"  style="overflow:visible;"/>
	</clipPath>
	<line class="st10" x1="30.7" y1="190" x2="387.9" y2="190"/>
</g>
<path class="st2" d="M20.7,193v0.9h-5.2c0-0.2,0-0.5,0.1-0.7c0.1-0.4,0.3-0.7,0.6-1c0.3-0.3,0.7-0.7,1.3-1.2
	c0.9-0.7,1.4-1.2,1.7-1.7c0.3-0.4,0.5-0.8,0.5-1.2c0-0.4-0.1-0.7-0.4-1c-0.3-0.3-0.6-0.4-1.1-0.4c-0.5,0-0.8,0.1-1.1,0.4
	c-0.3,0.3-0.4,0.7-0.4,1.2l-1-0.1c0.1-0.7,0.3-1.3,0.8-1.7c0.4-0.4,1-0.6,1.8-0.6s1.4,0.2,1.8,0.6c0.4,0.4,0.7,0.9,0.7,1.6
	c0,0.3-0.1,0.6-0.2,0.9c-0.1,0.3-0.3,0.6-0.6,1c-0.3,0.3-0.8,0.8-1.5,1.4c-0.6,0.5-1,0.8-1.1,1c-0.2,0.2-0.3,0.4-0.4,0.5H20.7"/>
<g>
	<defs>
		<rect id="SVGID_19_" x="30.7" y="0.6" width="357.1" height="266.1"/>
	</defs>
	<clipPath id="SVGID_20_">
		<use xlink:href="#SVGID_19_"  style="overflow:visible;"/>
	</clipPath>
	<line class="st11" x1="30.7" y1="151.6" x2="387.9" y2="151.6"/>
</g>
<path class="st2" d="M15.6,153.4l1-0.1c0.1,0.6,0.3,0.9,0.6,1.2c0.3,0.2,0.6,0.4,1,0.4c0.5,0,0.8-0.2,1.1-0.5
	c0.3-0.3,0.5-0.7,0.5-1.2c0-0.4-0.2-0.8-0.4-1.1s-0.7-0.4-1.1-0.4c-0.2,0-0.4,0-0.7,0.1l0.1-0.8c0.1,0,0.1,0,0.2,0
	c0.4,0,0.8-0.1,1.1-0.3c0.3-0.2,0.5-0.6,0.5-1c0-0.4-0.1-0.6-0.4-0.9c-0.2-0.2-0.6-0.4-0.9-0.4c-0.4,0-0.7,0.1-0.9,0.4
	c-0.3,0.2-0.4,0.6-0.5,1.1l-1-0.2c0.1-0.6,0.4-1.2,0.8-1.5c0.4-0.4,0.9-0.5,1.6-0.5c0.4,0,0.8,0.1,1.2,0.3c0.4,0.2,0.6,0.4,0.8,0.7
	c0.2,0.3,0.3,0.7,0.3,1c0,0.4-0.1,0.7-0.3,0.9c-0.2,0.3-0.5,0.5-0.8,0.7c0.5,0.1,0.8,0.3,1.1,0.7c0.3,0.3,0.4,0.8,0.4,1.3
	c0,0.7-0.3,1.3-0.8,1.7c-0.5,0.5-1.1,0.7-1.9,0.7c-0.7,0-1.3-0.2-1.7-0.6C15.9,154.6,15.7,154.1,15.6,153.4"/>
<g>
	<defs>
		<rect id="SVGID_21_" x="30.7" y="0.6" width="357.1" height="266.1"/>
	</defs>
	<clipPath id="SVGID_22_">
		<use xlink:href="#SVGID_21_"  style="overflow:visible;"/>
	</clipPath>
	<line class="st12" x1="30.7" y1="113.2" x2="387.9" y2="113.2"/>
</g>
<path class="st2" d="M18.7,114.3v-3.6l-2.5,3.6H18.7 M18.7,117.1v-1.9h-3.4v-0.9l3.6-5.1h0.8v5.1h1.1v0.9h-1.1v1.9H18.7"/>
<g>
	<defs>
		<rect id="SVGID_23_" x="30.7" y="0.6" width="357.1" height="266.1"/>
	</defs>
	<clipPath id="SVGID_24_">
		<use xlink:href="#SVGID_23_"  style="overflow:visible;"/>
	</clipPath>
	<line class="st13" x1="30.7" y1="74.8" x2="387.9" y2="74.8"/>
</g>
<path class="st2" d="M15.6,76.6l1-0.1c0.1,0.5,0.2,0.9,0.5,1.1c0.3,0.3,0.6,0.4,1,0.4c0.5,0,0.9-0.2,1.2-0.5
	c0.3-0.4,0.5-0.8,0.5-1.4c0-0.5-0.2-1-0.5-1.3s-0.7-0.5-1.2-0.5c-0.3,0-0.6,0.1-0.8,0.2c-0.3,0.1-0.5,0.3-0.6,0.5L15.8,75l0.8-4h3.9
	v0.9h-3.1L16.9,74c0.5-0.3,1-0.5,1.5-0.5c0.7,0,1.3,0.2,1.7,0.7c0.5,0.5,0.7,1.1,0.7,1.8c0,0.7-0.2,1.3-0.6,1.8
	c-0.5,0.6-1.2,0.9-2.1,0.9c-0.7,0-1.3-0.2-1.7-0.6C15.9,77.8,15.6,77.3,15.6,76.6"/>
<g>
	<defs>
		<rect id="SVGID_25_" x="30.7" y="0.6" width="357.1" height="266.1"/>
	</defs>
	<clipPath id="SVGID_26_">
		<use xlink:href="#SVGID_25_"  style="overflow:visible;"/>
	</clipPath>
	<line class="st14" x1="30.7" y1="36.4" x2="387.9" y2="36.4"/>
</g>
<path class="st2" d="M16.7,37.8c0,0.3,0.1,0.6,0.2,1c0.1,0.3,0.3,0.5,0.6,0.7c0.3,0.2,0.5,0.2,0.8,0.2c0.4,0,0.7-0.2,1-0.5
	c0.3-0.3,0.4-0.8,0.4-1.3c0-0.5-0.2-1-0.4-1.3c-0.3-0.3-0.6-0.5-1.1-0.5c-0.4,0-0.8,0.2-1.1,0.5C16.8,36.9,16.7,37.3,16.7,37.8
	 M20.6,34.4l-1,0.1c-0.1-0.4-0.2-0.6-0.4-0.8c-0.3-0.3-0.6-0.4-1-0.4c-0.3,0-0.6,0.1-0.8,0.3c-0.3,0.2-0.5,0.5-0.7,1
	c-0.2,0.4-0.3,1-0.3,1.8c0.2-0.4,0.5-0.6,0.9-0.8c0.3-0.2,0.7-0.3,1.1-0.3c0.6,0,1.2,0.2,1.6,0.7s0.7,1.1,0.7,1.8
	c0,0.5-0.1,1-0.3,1.4c-0.2,0.4-0.5,0.7-0.9,1c-0.4,0.2-0.8,0.3-1.3,0.3c-0.8,0-1.5-0.3-2-0.9c-0.5-0.6-0.8-1.6-0.8-2.9
	c0-1.5,0.3-2.6,0.8-3.3c0.5-0.6,1.1-0.9,2-0.9c0.6,0,1.1,0.2,1.5,0.5C20.3,33.3,20.5,33.8,20.6,34.4"/>
<polyline class="st2" points="8.6,185.8 0,185.8 0,184.6 6.7,180.1 0,180.1 0,179 8.6,179 8.6,180.2 1.8,184.7 8.6,184.7 8.6,185.8 
	"/>
<path class="st2" d="M5.5,176.6c0.8,0,1.4-0.2,1.8-0.5c0.4-0.3,0.6-0.8,0.6-1.3s-0.2-1-0.6-1.3c-0.4-0.3-1-0.5-1.8-0.5
	c-0.8,0-1.3,0.2-1.8,0.5c-0.4,0.4-0.6,0.8-0.6,1.3c0,0.5,0.2,1,0.6,1.3C4.1,176.4,4.7,176.6,5.5,176.6 M5.5,177.6
	c-1.2,0-2-0.3-2.6-1c-0.5-0.5-0.7-1.2-0.7-2c0-0.9,0.3-1.5,0.8-2.1c0.6-0.5,1.3-0.8,2.3-0.8c0.8,0,1.4,0.1,1.9,0.4
	c0.5,0.2,0.8,0.6,1.1,1.1c0.2,0.5,0.4,1,0.4,1.5c0,0.9-0.3,1.6-0.8,2.1C7.3,177.4,6.5,177.6,5.5,177.6"/>
<path class="st2" d="M8.6,170.6H2.4v-0.9h0.9c-0.4-0.2-0.7-0.5-0.9-0.7c-0.1-0.2-0.2-0.4-0.2-0.7c0-0.4,0.1-0.7,0.3-1.1l1,0.4
	c-0.1,0.3-0.2,0.5-0.2,0.8c0,0.2,0.1,0.4,0.2,0.6c0.1,0.2,0.3,0.3,0.6,0.4c0.4,0.1,0.8,0.2,1.2,0.2h3.3V170.6"/>
<path class="st2" d="M8.6,166.6H2.4v-0.9h0.9c-0.3-0.2-0.5-0.4-0.7-0.8c-0.2-0.3-0.3-0.7-0.3-1.1c0-0.5,0.1-0.8,0.3-1.1
	c0.2-0.3,0.5-0.5,0.8-0.6c-0.7-0.5-1.1-1.1-1.1-1.9c0-0.6,0.2-1.1,0.5-1.4s0.9-0.5,1.6-0.5h4.3v1.1H4.7c-0.4,0-0.7,0-0.9,0.1
	c-0.2,0.1-0.3,0.2-0.5,0.4c-0.1,0.2-0.2,0.4-0.2,0.6c0,0.4,0.2,0.8,0.4,1.1c0.3,0.3,0.8,0.4,1.4,0.4h3.6v1.1h-4
	c-0.5,0-0.8,0.1-1.1,0.3c-0.2,0.2-0.3,0.5-0.3,0.8c0,0.3,0.1,0.6,0.2,0.8s0.4,0.4,0.7,0.5c0.3,0.1,0.7,0.2,1.3,0.2h3.2V166.6"/>
<path class="st2" d="M5.5,152.6c0.2,0.4,0.3,1,0.4,1.7c0.1,0.4,0.1,0.7,0.2,0.9c0.1,0.2,0.2,0.3,0.3,0.4c0.2,0.1,0.3,0.1,0.5,0.1
	c0.3,0,0.5-0.1,0.7-0.3c0.2-0.2,0.3-0.5,0.3-0.9s-0.1-0.8-0.3-1.1c-0.2-0.3-0.4-0.6-0.7-0.7c-0.2-0.1-0.6-0.2-1.1-0.2H5.5
	 M7.8,152.5c0.3,0.4,0.6,0.8,0.7,1.1c0.1,0.4,0.2,0.8,0.2,1.2c0,0.7-0.2,1.2-0.5,1.6c-0.3,0.4-0.8,0.6-1.3,0.6
	c-0.3,0-0.6-0.1-0.8-0.2s-0.5-0.3-0.6-0.6c-0.1-0.2-0.3-0.5-0.3-0.8c0-0.2-0.1-0.5-0.2-0.9c-0.1-0.9-0.2-1.5-0.4-1.9
	c-0.1,0-0.2,0-0.3,0c-0.4,0-0.7,0.1-0.9,0.3c-0.2,0.3-0.4,0.7-0.4,1.2c0,0.5,0.1,0.9,0.3,1.1c0.2,0.2,0.5,0.4,0.9,0.5l-0.1,1
	c-0.4-0.1-0.8-0.3-1.1-0.5c-0.3-0.2-0.5-0.5-0.6-0.9c-0.1-0.4-0.2-0.9-0.2-1.4c0-0.5,0.1-1,0.2-1.3c0.1-0.3,0.3-0.6,0.5-0.7
	c0.2-0.2,0.4-0.3,0.7-0.3c0.2,0,0.5-0.1,1-0.1H6c1,0,1.6,0,1.9-0.1s0.5-0.1,0.7-0.3v1.1C8.4,152.4,8.1,152.5,7.8,152.5"/>
<polyline class="st2" points="8.6,149.9 0,149.9 0,148.9 8.6,148.9 8.6,149.9 "/>
<path class="st2" d="M8.6,147.2H2.4v-1.1h6.2V147.2 M1.2,147.2H0v-1.1h1.2V147.2"/>
<path class="st2" d="M8.6,145.1H7.7l-4.5-4c0,0.5,0,0.9,0,1.2v2.5H2.4v-5.1h0.7l3.9,3.4l0.7,0.6c0-0.5-0.1-0.9-0.1-1.3v-2.9h0.9
	V145.1"/>
<path class="st2" d="M4.9,137.8v-3.5c-0.5,0-0.9,0.2-1.2,0.4c-0.4,0.3-0.6,0.8-0.6,1.3c0,0.5,0.2,0.9,0.5,1.2
	C3.9,137.6,4.3,137.8,4.9,137.8 M6.6,134.3l0.1-1.1c0.6,0.2,1.1,0.5,1.5,1c0.3,0.5,0.5,1.1,0.5,1.8c0,0.9-0.3,1.6-0.8,2.2
	c-0.6,0.5-1.3,0.8-2.4,0.8c-1,0-1.9-0.3-2.4-0.8c-0.6-0.5-0.9-1.2-0.9-2.1c0-0.8,0.3-1.5,0.9-2c0.6-0.5,1.4-0.8,2.4-0.8
	c0.1,0,0.2,0,0.3,0v4.6c0.7,0,1.2-0.2,1.6-0.6c0.4-0.3,0.5-0.8,0.5-1.3c0-0.4-0.1-0.7-0.3-1C7.4,134.7,7,134.5,6.6,134.3"/>
<path class="st2" d="M5.5,131.2c0.8,0,1.4-0.2,1.8-0.5c0.4-0.3,0.6-0.7,0.6-1.2c0-0.5-0.2-0.8-0.6-1.2c-0.4-0.3-0.9-0.5-1.7-0.5
	c-0.9,0-1.5,0.2-1.9,0.5c-0.4,0.3-0.6,0.7-0.6,1.2s0.2,0.9,0.6,1.2S4.7,131.2,5.5,131.2 M8.6,127.9H7.8c0.6,0.4,0.9,1,0.9,1.7
	c0,0.5-0.1,1-0.4,1.4c-0.3,0.4-0.6,0.7-1.1,1c-0.5,0.2-1,0.3-1.7,0.3c-0.6,0-1.2-0.1-1.7-0.3c-0.5-0.2-0.9-0.5-1.2-0.9
	s-0.4-0.9-0.4-1.4c0-0.4,0.1-0.7,0.2-1c0.2-0.3,0.4-0.5,0.6-0.7H0v-1.1h8.6V127.9"/>
<path class="st2" d="M5.5,121.2c0.8,0,1.4-0.2,1.8-0.5c0.4-0.3,0.6-0.7,0.6-1.2c0-0.4-0.2-0.8-0.6-1.2c-0.4-0.3-1-0.5-1.7-0.5
	c-0.8,0-1.4,0.2-1.9,0.5s-0.6,0.7-0.6,1.2c0,0.5,0.2,0.9,0.6,1.2C4,121,4.6,121.2,5.5,121.2 M11,117.9h-3c0.2,0.2,0.4,0.4,0.6,0.7
	c0.1,0.3,0.2,0.6,0.2,0.9c0,0.7-0.3,1.4-0.9,1.9s-1.4,0.8-2.4,0.8c-0.6,0-1.2-0.1-1.7-0.3c-0.5-0.2-0.9-0.5-1.1-0.9
	c-0.3-0.4-0.4-0.9-0.4-1.4c0-0.8,0.3-1.4,1-1.8H2.4v-0.9H11V117.9"/>
<path class="st2" d="M8.6,111.2H7.7c0.7,0.5,1,1.2,1,2c0,0.4-0.1,0.7-0.2,1s-0.3,0.6-0.5,0.7c-0.2,0.2-0.5,0.3-0.8,0.3
	c-0.2,0-0.5,0.1-1,0.1H2.4v-1.1h3.5c0.6,0,0.9,0,1.1-0.1c0.3-0.1,0.5-0.2,0.6-0.4c0.2-0.2,0.2-0.5,0.2-0.8c0-0.3-0.1-0.6-0.2-0.9
	c-0.2-0.3-0.4-0.5-0.7-0.6c-0.3-0.1-0.7-0.2-1.2-0.2H2.4v-1.1h6.2V111.2"/>
<path class="st2" d="M5.5,104.6c0.2,0.4,0.3,1,0.4,1.7c0.1,0.4,0.1,0.7,0.2,0.9c0.1,0.2,0.2,0.3,0.3,0.4c0.2,0.1,0.3,0.1,0.5,0.1
	c0.3,0,0.5-0.1,0.7-0.3c0.2-0.2,0.3-0.5,0.3-0.9s-0.1-0.8-0.3-1.1c-0.2-0.3-0.4-0.6-0.7-0.7c-0.2-0.1-0.6-0.2-1.1-0.2H5.5
	 M7.8,104.5c0.3,0.4,0.6,0.8,0.7,1.1c0.1,0.4,0.2,0.8,0.2,1.2c0,0.7-0.2,1.2-0.5,1.6c-0.3,0.4-0.8,0.6-1.3,0.6
	c-0.3,0-0.6-0.1-0.8-0.2s-0.5-0.3-0.6-0.6c-0.1-0.2-0.3-0.5-0.3-0.8c0-0.2-0.1-0.5-0.2-0.9c-0.1-0.9-0.2-1.5-0.4-1.9
	c-0.1,0-0.2,0-0.3,0c-0.4,0-0.7,0.1-0.9,0.3c-0.2,0.3-0.4,0.7-0.4,1.2c0,0.5,0.1,0.9,0.3,1.1c0.2,0.2,0.5,0.4,0.9,0.5l-0.1,1
	c-0.4-0.1-0.8-0.3-1.1-0.5c-0.3-0.2-0.5-0.5-0.6-0.9c-0.1-0.4-0.2-0.9-0.2-1.4c0-0.5,0.1-1,0.2-1.3c0.1-0.3,0.3-0.6,0.5-0.7
	c0.2-0.2,0.4-0.3,0.7-0.3c0.2,0,0.5-0.1,1-0.1H6c1,0,1.6,0,1.9-0.1s0.5-0.1,0.7-0.3v1.1C8.4,104.4,8.1,104.5,7.8,104.5"/>
<path class="st2" d="M8.6,101.9H2.4v-0.9h0.9c-0.7-0.5-1-1.1-1-2c0-0.4,0.1-0.7,0.2-1s0.3-0.6,0.5-0.7c0.2-0.2,0.5-0.3,0.8-0.3
	c0.2,0,0.5-0.1,1-0.1h3.8v1.1H4.8c-0.4,0-0.7,0-1,0.1c-0.2,0.1-0.4,0.2-0.5,0.4c-0.1,0.2-0.2,0.5-0.2,0.7c0,0.5,0.1,0.9,0.4,1.2
	c0.3,0.3,0.8,0.5,1.6,0.5h3.4V101.9"/>
<path class="st2" d="M7.6,92.9l0.9-0.2c0,0.3,0.1,0.6,0.1,0.8c0,0.4-0.1,0.7-0.2,0.9c-0.1,0.2-0.3,0.4-0.5,0.4C7.8,95,7.4,95,6.8,95
	H3.2v0.8H2.4V95H0.8l-0.6-1h2.2v-1.1h0.8V94h3.6c0.3,0,0.5,0,0.6-0.1c0.1,0,0.2-0.1,0.2-0.2s0.1-0.2,0.1-0.4
	C7.7,93.3,7.7,93.1,7.6,92.9"/>
<path class="st2" d="M8.6,91.9H2.4v-1.1h6.2V91.9 M1.2,91.9H0v-1.1h1.2V91.9"/>
<path class="st2" d="M7.6,86.9l0.9-0.2c0,0.3,0.1,0.6,0.1,0.8c0,0.4-0.1,0.7-0.2,0.9c-0.1,0.2-0.3,0.4-0.5,0.4C7.8,89,7.4,89,6.8,89
	H3.2v0.8H2.4V89H0.8l-0.6-1h2.2v-1.1h0.8V88h3.6c0.3,0,0.5,0,0.6-0.1c0.1,0,0.2-0.1,0.2-0.2s0.1-0.2,0.1-0.4
	C7.7,87.3,7.7,87.1,7.6,86.9"/>
<path class="st2" d="M11,85.9L10,86c0.1-0.2,0.1-0.4,0.1-0.6c0-0.2,0-0.4-0.1-0.6c-0.1-0.1-0.2-0.3-0.3-0.3
	c-0.1-0.1-0.4-0.2-0.8-0.3c-0.1,0-0.1,0-0.3-0.1l-6.2,2.4v-1.1L6,84c0.5-0.2,0.9-0.3,1.4-0.4c-0.5-0.1-1-0.3-1.4-0.4l-3.6-1.3v-1.1
	l6.3,2.4c0.7,0.3,1.1,0.5,1.4,0.6c0.3,0.2,0.6,0.4,0.8,0.6c0.2,0.2,0.2,0.5,0.2,0.9C11.1,85.5,11.1,85.7,11,85.9"/>
<g>
	<defs>
		<rect id="SVGID_27_" x="30.7" y="0.6" width="357.1" height="266.1"/>
	</defs>
	<clipPath id="SVGID_28_">
		<use xlink:href="#SVGID_27_"  style="overflow:visible;"/>
	</clipPath>
	<g class="st15">
		<rect x="50.7" y="144" class="st16" width="6.2" height="122.8"/>
		<rect x="50.7" y="144" class="st17" width="6.2" height="122.8"/>
	</g>
</g>
<g>
	<defs>
		<rect id="SVGID_29_" x="30.7" y="0.6" width="357.1" height="266.1"/>
	</defs>
	<clipPath id="SVGID_30_">
		<use xlink:href="#SVGID_29_"  style="overflow:visible;"/>
	</clipPath>
	<g class="st18">
		<rect x="56.9" y="25.9" class="st16" width="6.2" height="240.9"/>
		<rect x="56.9" y="25.9" class="st17" width="6.2" height="240.9"/>
	</g>
</g>
<g>
	<defs>
		<rect id="SVGID_31_" x="30.7" y="0.6" width="357.1" height="266.1"/>
	</defs>
	<clipPath id="SVGID_32_">
		<use xlink:href="#SVGID_31_"  style="overflow:visible;"/>
	</clipPath>
	<g class="st19">
		<rect x="63.1" y="121" class="st16" width="6.2" height="145.7"/>
		<rect x="63.1" y="121" class="st17" width="6.2" height="145.7"/>
	</g>
</g>
<g>
	<defs>
		<rect id="SVGID_33_" x="30.7" y="0.6" width="357.1" height="266.1"/>
	</defs>
	<clipPath id="SVGID_34_">
		<use xlink:href="#SVGID_33_"  style="overflow:visible;"/>
	</clipPath>
	<g class="st20">
		<rect x="69.3" y="172.5" class="st16" width="6.2" height="94.2"/>
		<rect x="69.3" y="172.5" class="st17" width="6.2" height="94.2"/>
	</g>
</g>
<g>
	<defs>
		<rect id="SVGID_35_" x="30.7" y="0.6" width="357.1" height="266.1"/>
	</defs>
	<clipPath id="SVGID_36_">
		<use xlink:href="#SVGID_35_"  style="overflow:visible;"/>
	</clipPath>
	<g class="st21">
		<rect x="75.5" y="191.7" class="st16" width="6.2" height="75"/>
		<rect x="75.5" y="191.7" class="st17" width="6.2" height="75"/>
	</g>
</g>
<g>
	<defs>
		<rect id="SVGID_37_" x="30.7" y="0.6" width="357.1" height="266.1"/>
	</defs>
	<clipPath id="SVGID_38_">
		<use xlink:href="#SVGID_37_"  style="overflow:visible;"/>
	</clipPath>
	<g class="st22">
		<rect x="81.7" y="228.3" class="st16" width="6.2" height="38.4"/>
		<rect x="81.7" y="228.3" class="st17" width="6.2" height="38.4"/>
	</g>
</g>
<g>
	<defs>
		<rect id="SVGID_39_" x="30.7" y="0.6" width="357.1" height="266.1"/>
	</defs>
	<clipPath id="SVGID_40_">
		<use xlink:href="#SVGID_39_"  style="overflow:visible;"/>
	</clipPath>
	<g class="st23">
		<rect x="87.9" y="256.9" class="st16" width="6.2" height="9.8"/>
		<rect x="87.9" y="256.9" class="st17" width="6.2" height="9.8"/>
	</g>
</g>
<g>
	<defs>
		<rect id="SVGID_41_" x="30.7" y="0.6" width="357.1" height="266.1"/>
	</defs>
	<clipPath id="SVGID_42_">
		<use xlink:href="#SVGID_41_"  style="overflow:visible;"/>
	</clipPath>
	<g class="st24">
		<rect x="94.1" y="263.3" class="st16" width="6.2" height="3.5"/>
		<rect x="94.1" y="263.3" class="st17" width="6.2" height="3.5"/>
	</g>
</g>
<g>
	<defs>
		<rect id="SVGID_43_" x="30.7" y="0.6" width="357.1" height="266.1"/>
	</defs>
	<clipPath id="SVGID_44_">
		<use xlink:href="#SVGID_43_"  style="overflow:visible;"/>
	</clipPath>
	<g class="st25">
		<rect x="100.3" y="265.3" class="st16" width="6.2" height="1.5"/>
		<rect x="100.3" y="265.3" class="st17" width="6.2" height="1.5"/>
	</g>
</g>
<g>
	<defs>
		<rect id="SVGID_45_" x="30.7" y="0.6" width="357.1" height="266.1"/>
	</defs>
	<clipPath id="SVGID_46_">
		<use xlink:href="#SVGID_45_"  style="overflow:visible;"/>
	</clipPath>
	<g class="st26">
		<rect x="106.5" y="265.9" class="st16" width="6.2" height="0.8"/>
		<rect x="106.5" y="265.9" class="st17" width="6.2" height="0.8"/>
	</g>
</g>
<g>
	<defs>
		<rect id="SVGID_47_" x="30.7" y="0.6" width="357.1" height="266.1"/>
	</defs>
	<clipPath id="SVGID_48_">
		<use xlink:href="#SVGID_47_"  style="overflow:visible;"/>
	</clipPath>
	<g class="st27">
		<rect x="112.8" y="266.2" class="st16" width="6.2" height="0.5"/>
		<rect x="112.8" y="266.2" class="st17" width="6.2" height="0.5"/>
	</g>
</g>
<g>
	<defs>
		<rect id="SVGID_49_" x="30.7" y="0.6" width="357.1" height="266.1"/>
	</defs>
	<clipPath id="SVGID_50_">
		<use xlink:href="#SVGID_49_"  style="overflow:visible;"/>
	</clipPath>
	<g class="st28">
		<rect x="119" y="266.4" class="st16" width="6.2" height="0.3"/>
		<rect x="119" y="266.4" class="st17" width="6.2" height="0.3"/>
	</g>
</g>
<g>
	<defs>
		<rect id="SVGID_51_" x="30.7" y="0.6" width="357.1" height="266.1"/>
	</defs>
	<clipPath id="SVGID_52_">
		<use xlink:href="#SVGID_51_"  style="overflow:visible;"/>
	</clipPath>
	<g class="st29">
		<rect x="125.2" y="266.6" class="st16" width="6.2" height="0.1"/>
		<rect x="125.2" y="266.6" class="st17" width="6.2" height="0.1"/>
	</g>
</g>
<g>
	<defs>
		<rect id="SVGID_53_" x="30.7" y="0.6" width="357.1" height="266.1"/>
	</defs>
	<clipPath id="SVGID_54_">
		<use xlink:href="#SVGID_53_"  style="overflow:visible;"/>
	</clipPath>
	<g class="st30">
		<rect x="131.4" y="266.6" class="st16" width="6.2" height="0.1"/>
		<rect x="131.4" y="266.6" class="st17" width="6.2" height="0.1"/>
	</g>
</g>
<g>
	<defs>
		<rect id="SVGID_55_" x="30.7" y="0.6" width="357.1" height="266.1"/>
	</defs>
	<clipPath id="SVGID_56_">
		<use xlink:href="#SVGID_55_"  style="overflow:visible;"/>
	</clipPath>
	<g class="st31">
		<rect x="137.6" y="266.7" class="st16" width="6.2" height="0"/>
		<rect x="137.6" y="266.7" class="st17" width="6.2" height="0"/>
	</g>
</g>
<g>
	<defs>
		<rect id="SVGID_57_" x="30.7" y="0.6" width="357.1" height="266.1"/>
	</defs>
	<clipPath id="SVGID_58_">
		<use xlink:href="#SVGID_57_"  style="overflow:visible;"/>
	</clipPath>
	<g class="st32">
		<rect x="143.8" y="266.6" class="st16" width="6.2" height="0.1"/>
		<rect x="143.8" y="266.6" class="st17" width="6.2" height="0.1"/>
	</g>
</g>
<g>
	<defs>
		<rect id="SVGID_59_" x="30.7" y="0.6" width="357.1" height="266.1"/>
	</defs>
	<clipPath id="SVGID_60_">
		<use xlink:href="#SVGID_59_"  style="overflow:visible;"/>
	</clipPath>
	<g class="st33">
		<rect x="150" y="266.2" class="st16" width="6.2" height="0.6"/>
		<rect x="150" y="266.2" class="st17" width="6.2" height="0.6"/>
	</g>
</g>
<g>
	<defs>
		<rect id="SVGID_61_" x="30.7" y="0.6" width="357.1" height="266.1"/>
	</defs>
	<clipPath id="SVGID_62_">
		<use xlink:href="#SVGID_61_"  style="overflow:visible;"/>
	</clipPath>
	<g class="st34">
		<rect x="156.2" y="262.9" class="st16" width="6.2" height="3.8"/>
		<rect x="156.2" y="262.9" class="st17" width="6.2" height="3.8"/>
	</g>
</g>
<g>
	<defs>
		<rect id="SVGID_63_" x="30.7" y="0.6" width="357.1" height="266.1"/>
	</defs>
	<clipPath id="SVGID_64_">
		<use xlink:href="#SVGID_63_"  style="overflow:visible;"/>
	</clipPath>
	<g class="st35">
		<rect x="162.4" y="254.8" class="st16" width="6.2" height="12"/>
		<rect x="162.4" y="254.8" class="st17" width="6.2" height="12"/>
	</g>
</g>
<g>
	<defs>
		<rect id="SVGID_65_" x="30.7" y="0.6" width="357.1" height="266.1"/>
	</defs>
	<clipPath id="SVGID_66_">
		<use xlink:href="#SVGID_65_"  style="overflow:visible;"/>
	</clipPath>
	<g class="st36">
		<rect x="168.6" y="255.2" class="st16" width="6.2" height="11.5"/>
		<rect x="168.6" y="255.2" class="st17" width="6.2" height="11.5"/>
	</g>
</g>
<g>
	<defs>
		<rect id="SVGID_67_" x="30.7" y="0.6" width="357.1" height="266.1"/>
	</defs>
	<clipPath id="SVGID_68_">
		<use xlink:href="#SVGID_67_"  style="overflow:visible;"/>
	</clipPath>
	<g class="st37">
		<rect x="174.9" y="262.1" class="st16" width="6.2" height="4.7"/>
		<rect x="174.9" y="262.1" class="st17" width="6.2" height="4.7"/>
	</g>
</g>
<g>
	<defs>
		<rect id="SVGID_69_" x="30.7" y="0.6" width="357.1" height="266.1"/>
	</defs>
	<clipPath id="SVGID_70_">
		<use xlink:href="#SVGID_69_"  style="overflow:visible;"/>
	</clipPath>
	<g class="st38">
		<rect x="181.1" y="264.5" class="st16" width="6.2" height="2.3"/>
		<rect x="181.1" y="264.5" class="st17" width="6.2" height="2.3"/>
	</g>
</g>
<g>
	<defs>
		<rect id="SVGID_71_" x="30.7" y="0.6" width="357.1" height="266.1"/>
	</defs>
	<clipPath id="SVGID_72_">
		<use xlink:href="#SVGID_71_"  style="overflow:visible;"/>
	</clipPath>
	<g class="st39">
		<rect x="187.3" y="265.2" class="st16" width="6.2" height="1.5"/>
		<rect x="187.3" y="265.2" class="st17" width="6.2" height="1.5"/>
	</g>
</g>
<g>
	<defs>
		<rect id="SVGID_73_" x="30.7" y="0.6" width="357.1" height="266.1"/>
	</defs>
	<clipPath id="SVGID_74_">
		<use xlink:href="#SVGID_73_"  style="overflow:visible;"/>
	</clipPath>
	<g class="st40">
		<rect x="193.5" y="265.7" class="st16" width="6.2" height="1.1"/>
		<rect x="193.5" y="265.7" class="st17" width="6.2" height="1.1"/>
	</g>
</g>
<g>
	<defs>
		<rect id="SVGID_75_" x="30.7" y="0.6" width="357.1" height="266.1"/>
	</defs>
	<clipPath id="SVGID_76_">
		<use xlink:href="#SVGID_75_"  style="overflow:visible;"/>
	</clipPath>
	<g class="st41">
		<rect x="199.7" y="265.9" class="st16" width="6.2" height="0.9"/>
		<rect x="199.7" y="265.9" class="st17" width="6.2" height="0.9"/>
	</g>
</g>
<g>
	<defs>
		<rect id="SVGID_77_" x="30.7" y="0.6" width="357.1" height="266.1"/>
	</defs>
	<clipPath id="SVGID_78_">
		<use xlink:href="#SVGID_77_"  style="overflow:visible;"/>
	</clipPath>
	<g class="st42">
		<rect x="205.9" y="265.9" class="st16" width="6.2" height="0.8"/>
		<rect x="205.9" y="265.9" class="st17" width="6.2" height="0.8"/>
	</g>
</g>
<g>
	<defs>
		<rect id="SVGID_79_" x="30.7" y="0.6" width="357.1" height="266.1"/>
	</defs>
	<clipPath id="SVGID_80_">
		<use xlink:href="#SVGID_79_"  style="overflow:visible;"/>
	</clipPath>
	<g class="st43">
		<rect x="212.1" y="266.3" class="st16" width="6.2" height="0.4"/>
		<rect x="212.1" y="266.3" class="st17" width="6.2" height="0.4"/>
	</g>
</g>
<g>
	<defs>
		<rect id="SVGID_81_" x="30.7" y="0.6" width="357.1" height="266.1"/>
	</defs>
	<clipPath id="SVGID_82_">
		<use xlink:href="#SVGID_81_"  style="overflow:visible;"/>
	</clipPath>
	<g class="st44">
		<rect x="218.3" y="266.3" class="st16" width="6.2" height="0.5"/>
		<rect x="218.3" y="266.3" class="st17" width="6.2" height="0.5"/>
	</g>
</g>
<g>
	<defs>
		<rect id="SVGID_83_" x="30.7" y="0.6" width="357.1" height="266.1"/>
	</defs>
	<clipPath id="SVGID_84_">
		<use xlink:href="#SVGID_83_"  style="overflow:visible;"/>
	</clipPath>
	<g class="st45">
		<rect x="224.5" y="266.2" class="st16" width="6.2" height="0.5"/>
		<rect x="224.5" y="266.2" class="st17" width="6.2" height="0.5"/>
	</g>
</g>
<g>
	<defs>
		<rect id="SVGID_85_" x="30.7" y="0.6" width="357.1" height="266.1"/>
	</defs>
	<clipPath id="SVGID_86_">
		<use xlink:href="#SVGID_85_"  style="overflow:visible;"/>
	</clipPath>
	<g class="st46">
		<rect x="230.7" y="266.1" class="st16" width="6.2" height="0.6"/>
		<rect x="230.7" y="266.1" class="st17" width="6.2" height="0.6"/>
	</g>
</g>
<g>
	<defs>
		<rect id="SVGID_87_" x="30.7" y="0.6" width="357.1" height="266.1"/>
	</defs>
	<clipPath id="SVGID_88_">
		<use xlink:href="#SVGID_87_"  style="overflow:visible;"/>
	</clipPath>
	<g class="st47">
		<rect x="237" y="266.2" class="st16" width="6.2" height="0.6"/>
		<rect x="237" y="266.2" class="st17" width="6.2" height="0.6"/>
	</g>
</g>
<g>
	<defs>
		<rect id="SVGID_89_" x="30.7" y="0.6" width="357.1" height="266.1"/>
	</defs>
	<clipPath id="SVGID_90_">
		<use xlink:href="#SVGID_89_"  style="overflow:visible;"/>
	</clipPath>
	<g class="st48">
		<rect x="243.2" y="266.2" class="st16" width="6.2" height="0.5"/>
		<rect x="243.2" y="266.2" class="st17" width="6.2" height="0.5"/>
	</g>
</g>
<g>
	<defs>
		<rect id="SVGID_91_" x="30.7" y="0.6" width="357.1" height="266.1"/>
	</defs>
	<clipPath id="SVGID_92_">
		<use xlink:href="#SVGID_91_"  style="overflow:visible;"/>
	</clipPath>
	<g class="st49">
		<rect x="249.4" y="266.3" class="st16" width="6.2" height="0.4"/>
		<rect x="249.4" y="266.3" class="st17" width="6.2" height="0.4"/>
	</g>
</g>
<g>
	<defs>
		<rect id="SVGID_93_" x="30.7" y="0.6" width="357.1" height="266.1"/>
	</defs>
	<clipPath id="SVGID_94_">
		<use xlink:href="#SVGID_93_"  style="overflow:visible;"/>
	</clipPath>
	<g class="st50">
		<rect x="255.6" y="266.4" class="st16" width="6.2" height="0.3"/>
		<rect x="255.6" y="266.4" class="st17" width="6.2" height="0.3"/>
	</g>
</g>
<g>
	<defs>
		<rect id="SVGID_95_" x="30.7" y="0.6" width="357.1" height="266.1"/>
	</defs>
	<clipPath id="SVGID_96_">
		<use xlink:href="#SVGID_95_"  style="overflow:visible;"/>
	</clipPath>
	<g class="st51">
		<rect x="261.8" y="266.2" class="st16" width="6.2" height="0.5"/>
		<rect x="261.8" y="266.2" class="st17" width="6.2" height="0.5"/>
	</g>
</g>
<g>
	<defs>
		<rect id="SVGID_97_" x="30.7" y="0.6" width="357.1" height="266.1"/>
	</defs>
	<clipPath id="SVGID_98_">
		<use xlink:href="#SVGID_97_"  style="overflow:visible;"/>
	</clipPath>
	<g class="st52">
		<rect x="268" y="266.2" class="st16" width="6.2" height="0.5"/>
		<rect x="268" y="266.2" class="st17" width="6.2" height="0.5"/>
	</g>
</g>
<g>
	<defs>
		<rect id="SVGID_99_" x="30.7" y="0.6" width="357.1" height="266.1"/>
	</defs>
	<clipPath id="SVGID_100_">
		<use xlink:href="#SVGID_99_"  style="overflow:visible;"/>
	</clipPath>
	<g class="st53">
		<rect x="274.2" y="266.3" class="st16" width="6.2" height="0.4"/>
		<rect x="274.2" y="266.3" class="st17" width="6.2" height="0.4"/>
	</g>
</g>
<g>
	<defs>
		<rect id="SVGID_101_" x="30.7" y="0.6" width="357.1" height="266.1"/>
	</defs>
	<clipPath id="SVGID_102_">
		<use xlink:href="#SVGID_101_"  style="overflow:visible;"/>
	</clipPath>
	<g class="st54">
		<rect x="280.4" y="266.4" class="st16" width="6.2" height="0.4"/>
		<rect x="280.4" y="266.4" class="st17" width="6.2" height="0.4"/>
	</g>
</g>
<g>
	<defs>
		<rect id="SVGID_103_" x="30.7" y="0.6" width="357.1" height="266.1"/>
	</defs>
	<clipPath id="SVGID_104_">
		<use xlink:href="#SVGID_103_"  style="overflow:visible;"/>
	</clipPath>
	<g class="st55">
		<rect x="286.6" y="266.4" class="st16" width="6.2" height="0.3"/>
		<rect x="286.6" y="266.4" class="st17" width="6.2" height="0.3"/>
	</g>
</g>
<g>
	<defs>
		<rect id="SVGID_105_" x="30.7" y="0.6" width="357.1" height="266.1"/>
	</defs>
	<clipPath id="SVGID_106_">
		<use xlink:href="#SVGID_105_"  style="overflow:visible;"/>
	</clipPath>
	<g class="st56">
		<rect x="292.8" y="266.4" class="st16" width="6.2" height="0.3"/>
		<rect x="292.8" y="266.4" class="st17" width="6.2" height="0.3"/>
	</g>
</g>
<g>
	<defs>
		<rect id="SVGID_107_" x="30.7" y="0.6" width="357.1" height="266.1"/>
	</defs>
	<clipPath id="SVGID_108_">
		<use xlink:href="#SVGID_107_"  style="overflow:visible;"/>
	</clipPath>
	<g class="st57">
		<rect x="299.1" y="266.5" class="st16" width="6.2" height="0.2"/>
		<rect x="299.1" y="266.5" class="st17" width="6.2" height="0.2"/>
	</g>
</g>
<g>
	<defs>
		<rect id="SVGID_109_" x="30.7" y="0.6" width="357.1" height="266.1"/>
	</defs>
	<clipPath id="SVGID_110_">
		<use xlink:href="#SVGID_109_"  style="overflow:visible;"/>
	</clipPath>
	<g class="st58">
		<rect x="305.3" y="266.5" class="st16" width="6.2" height="0.2"/>
		<rect x="305.3" y="266.5" class="st17" width="6.2" height="0.2"/>
	</g>
</g>
<g>
	<defs>
		<rect id="SVGID_111_" x="30.7" y="0.6" width="357.1" height="266.1"/>
	</defs>
	<clipPath id="SVGID_112_">
		<use xlink:href="#SVGID_111_"  style="overflow:visible;"/>
	</clipPath>
	<g class="st59">
		<rect x="311.5" y="266.6" class="st16" width="6.2" height="0.2"/>
		<rect x="311.5" y="266.6" class="st17" width="6.2" height="0.2"/>
	</g>
</g>
<g>
	<defs>
		<rect id="SVGID_113_" x="30.7" y="0.6" width="357.1" height="266.1"/>
	</defs>
	<clipPath id="SVGID_114_">
		<use xlink:href="#SVGID_113_"  style="overflow:visible;"/>
	</clipPath>
	<g class="st60">
		<rect x="317.7" y="266.6" class="st16" width="6.2" height="0.2"/>
		<rect x="317.7" y="266.6" class="st17" width="6.2" height="0.2"/>
	</g>
</g>
<g>
	<defs>
		<rect id="SVGID_115_" x="30.7" y="0.6" width="357.1" height="266.1"/>
	</defs>
	<clipPath id="SVGID_116_">
		<use xlink:href="#SVGID_115_"  style="overflow:visible;"/>
	</clipPath>
	<g class="st61">
		<rect x="323.9" y="266.5" class="st16" width="6.2" height="0.2"/>
		<rect x="323.9" y="266.5" class="st17" width="6.2" height="0.2"/>
	</g>
</g>
<g>
	<defs>
		<rect id="SVGID_117_" x="30.7" y="0.6" width="357.1" height="266.1"/>
	</defs>
	<clipPath id="SVGID_118_">
		<use xlink:href="#SVGID_117_"  style="overflow:visible;"/>
	</clipPath>
	<g class="st62">
		<rect x="330.1" y="266.6" class="st16" width="6.2" height="0.2"/>
		<rect x="330.1" y="266.6" class="st17" width="6.2" height="0.2"/>
	</g>
</g>
<g>
	<defs>
		<rect id="SVGID_119_" x="30.7" y="0.6" width="357.1" height="266.1"/>
	</defs>
	<clipPath id="SVGID_120_">
		<use xlink:href="#SVGID_119_"  style="overflow:visible;"/>
	</clipPath>
	<g class="st63">
		<rect x="336.3" y="266.7" class="st16" width="6.2" height="0.1"/>
		<rect x="336.3" y="266.7" class="st17" width="6.2" height="0.1"/>
	</g>
</g>
<g>
	<defs>
		<rect id="SVGID_121_" x="30.7" y="0.6" width="357.1" height="266.1"/>
	</defs>
	<clipPath id="SVGID_122_">
		<use xlink:href="#SVGID_121_"  style="overflow:visible;"/>
	</clipPath>
	<g class="st64">
		<rect x="342.5" y="266.6" class="st16" width="6.2" height="0.1"/>
		<rect x="342.5" y="266.6" class="st17" width="6.2" height="0.1"/>
	</g>
</g>
<g>
	<defs>
		<rect id="SVGID_123_" x="30.7" y="0.6" width="357.1" height="266.1"/>
	</defs>
	<clipPath id="SVGID_124_">
		<use xlink:href="#SVGID_123_"  style="overflow:visible;"/>
	</clipPath>
	<g class="st65">
		<rect x="348.7" y="266.7" class="st16" width="6.2" height="0.1"/>
		<rect x="348.7" y="266.7" class="st17" width="6.2" height="0.1"/>
	</g>
</g>
<g>
	<defs>
		<rect id="SVGID_125_" x="30.7" y="0.6" width="357.1" height="266.1"/>
	</defs>
	<clipPath id="SVGID_126_">
		<use xlink:href="#SVGID_125_"  style="overflow:visible;"/>
	</clipPath>
	<g class="st66">
		<rect x="354.9" y="266.7" class="st16" width="6.2" height="0"/>
		<rect x="354.9" y="266.7" class="st17" width="6.2" height="0"/>
	</g>
</g>
<g>
	<defs>
		<rect id="SVGID_127_" x="30.7" y="0.6" width="357.1" height="266.1"/>
	</defs>
	<clipPath id="SVGID_128_">
		<use xlink:href="#SVGID_127_"  style="overflow:visible;"/>
	</clipPath>
	<g class="st67">
		<rect x="51.3" y="257.9" class="st68" width="6.3" height="8.9"/>
		<rect x="51.3" y="257.9" class="st17" width="6.3" height="8.9"/>
	</g>
</g>
<g>
	<defs>
		<rect id="SVGID_129_" x="30.7" y="0.6" width="357.1" height="266.1"/>
	</defs>
	<clipPath id="SVGID_130_">
		<use xlink:href="#SVGID_129_"  style="overflow:visible;"/>
	</clipPath>
	<g class="st69">
		<rect x="57.6" y="214.5" class="st68" width="6.3" height="52.2"/>
		<rect x="57.6" y="214.5" class="st17" width="6.3" height="52.2"/>
	</g>
</g>
<g>
	<defs>
		<rect id="SVGID_131_" x="30.7" y="0.6" width="357.1" height="266.1"/>
	</defs>
	<clipPath id="SVGID_132_">
		<use xlink:href="#SVGID_131_"  style="overflow:visible;"/>
	</clipPath>
	<g class="st70">
		<rect x="64" y="147.9" class="st68" width="6.3" height="118.8"/>
		<rect x="64" y="147.9" class="st17" width="6.3" height="118.8"/>
	</g>
</g>
<g>
	<defs>
		<rect id="SVGID_133_" x="30.7" y="0.6" width="357.1" height="266.1"/>
	</defs>
	<clipPath id="SVGID_134_">
		<use xlink:href="#SVGID_133_"  style="overflow:visible;"/>
	</clipPath>
	<g class="st71">
		<rect x="70.3" y="93.6" class="st68" width="6.3" height="173.1"/>
		<rect x="70.3" y="93.6" class="st17" width="6.3" height="173.1"/>
	</g>
</g>
<g>
	<defs>
		<rect id="SVGID_135_" x="30.7" y="0.6" width="357.1" height="266.1"/>
	</defs>
	<clipPath id="SVGID_136_">
		<use xlink:href="#SVGID_135_"  style="overflow:visible;"/>
	</clipPath>
	<g class="st72">
		<rect x="76.6" y="96.5" class="st68" width="6.3" height="170.2"/>
		<rect x="76.6" y="96.5" class="st17" width="6.3" height="170.2"/>
	</g>
</g>
<g>
	<defs>
		<rect id="SVGID_137_" x="30.7" y="0.6" width="357.1" height="266.1"/>
	</defs>
	<clipPath id="SVGID_138_">
		<use xlink:href="#SVGID_137_"  style="overflow:visible;"/>
	</clipPath>
	<g class="st73">
		<rect x="83" y="162.2" class="st68" width="6.3" height="104.6"/>
		<rect x="83" y="162.2" class="st17" width="6.3" height="104.6"/>
	</g>
</g>
<g>
	<defs>
		<rect id="SVGID_139_" x="30.7" y="0.6" width="357.1" height="266.1"/>
	</defs>
	<clipPath id="SVGID_140_">
		<use xlink:href="#SVGID_139_"  style="overflow:visible;"/>
	</clipPath>
	<g class="st74">
		<rect x="89.3" y="205.4" class="st68" width="6.3" height="61.4"/>
		<rect x="89.3" y="205.4" class="st17" width="6.3" height="61.4"/>
	</g>
</g>
<g>
	<defs>
		<rect id="SVGID_141_" x="30.7" y="0.6" width="357.1" height="266.1"/>
	</defs>
	<clipPath id="SVGID_142_">
		<use xlink:href="#SVGID_141_"  style="overflow:visible;"/>
	</clipPath>
	<g class="st75">
		<rect x="95.7" y="244.7" class="st68" width="6.3" height="22"/>
		<rect x="95.7" y="244.7" class="st17" width="6.3" height="22"/>
	</g>
</g>
<g>
	<defs>
		<rect id="SVGID_143_" x="30.7" y="0.6" width="357.1" height="266.1"/>
	</defs>
	<clipPath id="SVGID_144_">
		<use xlink:href="#SVGID_143_"  style="overflow:visible;"/>
	</clipPath>
	<g class="st76">
		<rect x="102" y="261.9" class="st68" width="6.3" height="4.9"/>
		<rect x="102" y="261.9" class="st17" width="6.3" height="4.9"/>
	</g>
</g>
<g>
	<defs>
		<rect id="SVGID_145_" x="30.7" y="0.6" width="357.1" height="266.1"/>
	</defs>
	<clipPath id="SVGID_146_">
		<use xlink:href="#SVGID_145_"  style="overflow:visible;"/>
	</clipPath>
	<g class="st77">
		<rect x="108.3" y="265.1" class="st68" width="6.3" height="1.6"/>
		<rect x="108.3" y="265.1" class="st17" width="6.3" height="1.6"/>
	</g>
</g>
<g>
	<defs>
		<rect id="SVGID_147_" x="30.7" y="0.6" width="357.1" height="266.1"/>
	</defs>
	<clipPath id="SVGID_148_">
		<use xlink:href="#SVGID_147_"  style="overflow:visible;"/>
	</clipPath>
	<g class="st78">
		<rect x="114.7" y="266" class="st68" width="6.3" height="0.7"/>
		<rect x="114.7" y="266" class="st17" width="6.3" height="0.7"/>
	</g>
</g>
<g>
	<defs>
		<rect id="SVGID_149_" x="30.7" y="0.6" width="357.1" height="266.1"/>
	</defs>
	<clipPath id="SVGID_150_">
		<use xlink:href="#SVGID_149_"  style="overflow:visible;"/>
	</clipPath>
	<g class="st79">
		<rect x="121" y="266.3" class="st68" width="6.3" height="0.4"/>
		<rect x="121" y="266.3" class="st17" width="6.3" height="0.4"/>
	</g>
</g>
<g>
	<defs>
		<rect id="SVGID_151_" x="30.7" y="0.6" width="357.1" height="266.1"/>
	</defs>
	<clipPath id="SVGID_152_">
		<use xlink:href="#SVGID_151_"  style="overflow:visible;"/>
	</clipPath>
	<g class="st80">
		<rect x="127.3" y="266.4" class="st68" width="6.3" height="0.4"/>
		<rect x="127.3" y="266.4" class="st17" width="6.3" height="0.4"/>
	</g>
</g>
<g>
	<defs>
		<rect id="SVGID_153_" x="30.7" y="0.6" width="357.1" height="266.1"/>
	</defs>
	<clipPath id="SVGID_154_">
		<use xlink:href="#SVGID_153_"  style="overflow:visible;"/>
	</clipPath>
	<g class="st81">
		<rect x="133.7" y="266.2" class="st68" width="6.3" height="0.5"/>
		<rect x="133.7" y="266.2" class="st17" width="6.3" height="0.5"/>
	</g>
</g>
<g>
	<defs>
		<rect id="SVGID_155_" x="30.7" y="0.6" width="357.1" height="266.1"/>
	</defs>
	<clipPath id="SVGID_156_">
		<use xlink:href="#SVGID_155_"  style="overflow:visible;"/>
	</clipPath>
	<g class="st82">
		<rect x="140" y="265.9" class="st68" width="6.3" height="0.8"/>
		<rect x="140" y="265.9" class="st17" width="6.3" height="0.8"/>
	</g>
</g>
<g>
	<defs>
		<rect id="SVGID_157_" x="30.7" y="0.6" width="357.1" height="266.1"/>
	</defs>
	<clipPath id="SVGID_158_">
		<use xlink:href="#SVGID_157_"  style="overflow:visible;"/>
	</clipPath>
	<g class="st83">
		<rect x="146.4" y="265.2" class="st68" width="6.3" height="1.5"/>
		<rect x="146.4" y="265.2" class="st17" width="6.3" height="1.5"/>
	</g>
</g>
<g>
	<defs>
		<rect id="SVGID_159_" x="30.7" y="0.6" width="357.1" height="266.1"/>
	</defs>
	<clipPath id="SVGID_160_">
		<use xlink:href="#SVGID_159_"  style="overflow:visible;"/>
	</clipPath>
	<g class="st84">
		<rect x="152.7" y="264.2" class="st68" width="6.3" height="2.6"/>
		<rect x="152.7" y="264.2" class="st17" width="6.3" height="2.6"/>
	</g>
</g>
<g>
	<defs>
		<rect id="SVGID_161_" x="30.7" y="0.6" width="357.1" height="266.1"/>
	</defs>
	<clipPath id="SVGID_162_">
		<use xlink:href="#SVGID_161_"  style="overflow:visible;"/>
	</clipPath>
	<g class="st85">
		<rect x="159" y="263.3" class="st68" width="6.3" height="3.5"/>
		<rect x="159" y="263.3" class="st17" width="6.3" height="3.5"/>
	</g>
</g>
<g>
	<defs>
		<rect id="SVGID_163_" x="30.7" y="0.6" width="357.1" height="266.1"/>
	</defs>
	<clipPath id="SVGID_164_">
		<use xlink:href="#SVGID_163_"  style="overflow:visible;"/>
	</clipPath>
	<g class="st86">
		<rect x="165.4" y="261.9" class="st68" width="6.3" height="4.8"/>
		<rect x="165.4" y="261.9" class="st17" width="6.3" height="4.8"/>
	</g>
</g>
<g>
	<defs>
		<rect id="SVGID_165_" x="30.7" y="0.6" width="357.1" height="266.1"/>
	</defs>
	<clipPath id="SVGID_166_">
		<use xlink:href="#SVGID_165_"  style="overflow:visible;"/>
	</clipPath>
	<g class="st87">
		<rect x="171.7" y="260.9" class="st68" width="6.3" height="5.8"/>
		<rect x="171.7" y="260.9" class="st17" width="6.3" height="5.8"/>
	</g>
</g>
<g>
	<defs>
		<rect id="SVGID_167_" x="30.7" y="0.6" width="357.1" height="266.1"/>
	</defs>
	<clipPath id="SVGID_168_">
		<use xlink:href="#SVGID_167_"  style="overflow:visible;"/>
	</clipPath>
	<g class="st88">
		<rect x="178" y="261.6" class="st68" width="6.3" height="5.2"/>
		<rect x="178" y="261.6" class="st17" width="6.3" height="5.2"/>
	</g>
</g>
<g>
	<defs>
		<rect id="SVGID_169_" x="30.7" y="0.6" width="357.1" height="266.1"/>
	</defs>
	<clipPath id="SVGID_170_">
		<use xlink:href="#SVGID_169_"  style="overflow:visible;"/>
	</clipPath>
	<g class="st89">
		<rect x="184.4" y="262.8" class="st68" width="6.3" height="4"/>
		<rect x="184.4" y="262.8" class="st17" width="6.3" height="4"/>
	</g>
</g>
<g>
	<defs>
		<rect id="SVGID_171_" x="30.7" y="0.6" width="357.1" height="266.1"/>
	</defs>
	<clipPath id="SVGID_172_">
		<use xlink:href="#SVGID_171_"  style="overflow:visible;"/>
	</clipPath>
	<g class="st90">
		<rect x="190.7" y="263.5" class="st68" width="6.3" height="3.3"/>
		<rect x="190.7" y="263.5" class="st17" width="6.3" height="3.3"/>
	</g>
</g>
<g>
	<defs>
		<rect id="SVGID_173_" x="30.7" y="0.6" width="357.1" height="266.1"/>
	</defs>
	<clipPath id="SVGID_174_">
		<use xlink:href="#SVGID_173_"  style="overflow:visible;"/>
	</clipPath>
	<g class="st91">
		<rect x="197.1" y="264.7" class="st68" width="6.3" height="2.1"/>
		<rect x="197.1" y="264.7" class="st17" width="6.3" height="2.1"/>
	</g>
</g>
<g>
	<defs>
		<rect id="SVGID_175_" x="30.7" y="0.6" width="357.1" height="266.1"/>
	</defs>
	<clipPath id="SVGID_176_">
		<use xlink:href="#SVGID_175_"  style="overflow:visible;"/>
	</clipPath>
	<g class="st92">
		<rect x="203.4" y="265.4" class="st68" width="6.3" height="1.3"/>
		<rect x="203.4" y="265.4" class="st17" width="6.3" height="1.3"/>
	</g>
</g>
<g>
	<defs>
		<rect id="SVGID_177_" x="30.7" y="0.6" width="357.1" height="266.1"/>
	</defs>
	<clipPath id="SVGID_178_">
		<use xlink:href="#SVGID_177_"  style="overflow:visible;"/>
	</clipPath>
	<g class="st93">
		<rect x="209.7" y="266" class="st68" width="6.3" height="0.7"/>
		<rect x="209.7" y="266" class="st17" width="6.3" height="0.7"/>
	</g>
</g>
<g>
	<defs>
		<rect id="SVGID_179_" x="30.7" y="0.6" width="357.1" height="266.1"/>
	</defs>
	<clipPath id="SVGID_180_">
		<use xlink:href="#SVGID_179_"  style="overflow:visible;"/>
	</clipPath>
	<g class="st94">
		<rect x="216.1" y="266.1" class="st68" width="6.3" height="0.7"/>
		<rect x="216.1" y="266.1" class="st17" width="6.3" height="0.7"/>
	</g>
</g>
<g>
	<defs>
		<rect id="SVGID_181_" x="30.7" y="0.6" width="357.1" height="266.1"/>
	</defs>
	<clipPath id="SVGID_182_">
		<use xlink:href="#SVGID_181_"  style="overflow:visible;"/>
	</clipPath>
	<g class="st95">
		<rect x="222.4" y="266.1" class="st68" width="6.3" height="0.7"/>
		<rect x="222.4" y="266.1" class="st17" width="6.3" height="0.7"/>
	</g>
</g>
<g>
	<defs>
		<rect id="SVGID_183_" x="30.7" y="0.6" width="357.1" height="266.1"/>
	</defs>
	<clipPath id="SVGID_184_">
		<use xlink:href="#SVGID_183_"  style="overflow:visible;"/>
	</clipPath>
	<g class="st96">
		<rect x="228.7" y="266" class="st68" width="6.3" height="0.8"/>
		<rect x="228.7" y="266" class="st17" width="6.3" height="0.8"/>
	</g>
</g>
<g>
	<defs>
		<rect id="SVGID_185_" x="30.7" y="0.6" width="357.1" height="266.1"/>
	</defs>
	<clipPath id="SVGID_186_">
		<use xlink:href="#SVGID_185_"  style="overflow:visible;"/>
	</clipPath>
	<g class="st97">
		<rect x="235.1" y="265.8" class="st68" width="6.3" height="1"/>
		<rect x="235.1" y="265.8" class="st17" width="6.3" height="1"/>
	</g>
</g>
<g>
	<defs>
		<rect id="SVGID_187_" x="30.7" y="0.6" width="357.1" height="266.1"/>
	</defs>
	<clipPath id="SVGID_188_">
		<use xlink:href="#SVGID_187_"  style="overflow:visible;"/>
	</clipPath>
	<g class="st98">
		<rect x="241.4" y="266.1" class="st68" width="6.3" height="0.7"/>
		<rect x="241.4" y="266.1" class="st17" width="6.3" height="0.7"/>
	</g>
</g>
<g>
	<defs>
		<rect id="SVGID_189_" x="30.7" y="0.6" width="357.1" height="266.1"/>
	</defs>
	<clipPath id="SVGID_190_">
		<use xlink:href="#SVGID_189_"  style="overflow:visible;"/>
	</clipPath>
	<g class="st99">
		<rect x="247.8" y="266" class="st68" width="6.3" height="0.7"/>
		<rect x="247.8" y="266" class="st17" width="6.3" height="0.7"/>
	</g>
</g>
<g>
	<defs>
		<rect id="SVGID_191_" x="30.7" y="0.6" width="357.1" height="266.1"/>
	</defs>
	<clipPath id="SVGID_192_">
		<use xlink:href="#SVGID_191_"  style="overflow:visible;"/>
	</clipPath>
	<g class="st100">
		<rect x="254.1" y="266" class="st68" width="6.3" height="0.7"/>
		<rect x="254.1" y="266" class="st17" width="6.3" height="0.7"/>
	</g>
</g>
<g>
	<defs>
		<rect id="SVGID_193_" x="30.7" y="0.6" width="357.1" height="266.1"/>
	</defs>
	<clipPath id="SVGID_194_">
		<use xlink:href="#SVGID_193_"  style="overflow:visible;"/>
	</clipPath>
	<g class="st101">
		<rect x="260.4" y="266.4" class="st68" width="6.3" height="0.4"/>
		<rect x="260.4" y="266.4" class="st17" width="6.3" height="0.4"/>
	</g>
</g>
<g>
	<defs>
		<rect id="SVGID_195_" x="30.7" y="0.6" width="357.1" height="266.1"/>
	</defs>
	<clipPath id="SVGID_196_">
		<use xlink:href="#SVGID_195_"  style="overflow:visible;"/>
	</clipPath>
	<g class="st102">
		<rect x="266.8" y="266.4" class="st68" width="6.3" height="0.3"/>
		<rect x="266.8" y="266.4" class="st17" width="6.3" height="0.3"/>
	</g>
</g>
<g>
	<defs>
		<rect id="SVGID_197_" x="30.7" y="0.6" width="357.1" height="266.1"/>
	</defs>
	<clipPath id="SVGID_198_">
		<use xlink:href="#SVGID_197_"  style="overflow:visible;"/>
	</clipPath>
	<g class="st103">
		<rect x="273.1" y="266.5" class="st68" width="6.3" height="0.3"/>
		<rect x="273.1" y="266.5" class="st17" width="6.3" height="0.3"/>
	</g>
</g>
<g>
	<defs>
		<rect id="SVGID_199_" x="30.7" y="0.6" width="357.1" height="266.1"/>
	</defs>
	<clipPath id="SVGID_200_">
		<use xlink:href="#SVGID_199_"  style="overflow:visible;"/>
	</clipPath>
	<g class="st104">
		<rect x="279.4" y="266.4" class="st68" width="6.3" height="0.3"/>
		<rect x="279.4" y="266.4" class="st17" width="6.3" height="0.3"/>
	</g>
</g>
<g>
	<defs>
		<rect id="SVGID_201_" x="30.7" y="0.6" width="357.1" height="266.1"/>
	</defs>
	<clipPath id="SVGID_202_">
		<use xlink:href="#SVGID_201_"  style="overflow:visible;"/>
	</clipPath>
	<g class="st105">
		<rect x="285.8" y="266.4" class="st68" width="6.3" height="0.4"/>
		<rect x="285.8" y="266.4" class="st17" width="6.3" height="0.4"/>
	</g>
</g>
<g>
	<defs>
		<rect id="SVGID_203_" x="30.7" y="0.6" width="357.1" height="266.1"/>
	</defs>
	<clipPath id="SVGID_204_">
		<use xlink:href="#SVGID_203_"  style="overflow:visible;"/>
	</clipPath>
	<g class="st106">
		<rect x="292.1" y="266.4" class="st68" width="6.3" height="0.4"/>
		<rect x="292.1" y="266.4" class="st17" width="6.3" height="0.4"/>
	</g>
</g>
<g>
	<defs>
		<rect id="SVGID_205_" x="30.7" y="0.6" width="357.1" height="266.1"/>
	</defs>
	<clipPath id="SVGID_206_">
		<use xlink:href="#SVGID_205_"  style="overflow:visible;"/>
	</clipPath>
	<g class="st107">
		<rect x="298.5" y="266.3" class="st68" width="6.3" height="0.4"/>
		<rect x="298.5" y="266.3" class="st17" width="6.3" height="0.4"/>
	</g>
</g>
<g>
	<defs>
		<rect id="SVGID_207_" x="30.7" y="0.6" width="357.1" height="266.1"/>
	</defs>
	<clipPath id="SVGID_208_">
		<use xlink:href="#SVGID_207_"  style="overflow:visible;"/>
	</clipPath>
	<g class="st108">
		<rect x="304.8" y="266.3" class="st68" width="6.3" height="0.4"/>
		<rect x="304.8" y="266.3" class="st17" width="6.3" height="0.4"/>
	</g>
</g>
<g>
	<defs>
		<rect id="SVGID_209_" x="30.7" y="0.6" width="357.1" height="266.1"/>
	</defs>
	<clipPath id="SVGID_210_">
		<use xlink:href="#SVGID_209_"  style="overflow:visible;"/>
	</clipPath>
	<g class="st109">
		<rect x="311.1" y="266.4" class="st68" width="6.3" height="0.4"/>
		<rect x="311.1" y="266.4" class="st17" width="6.3" height="0.4"/>
	</g>
</g>
<g>
	<defs>
		<rect id="SVGID_211_" x="30.7" y="0.6" width="357.1" height="266.1"/>
	</defs>
	<clipPath id="SVGID_212_">
		<use xlink:href="#SVGID_211_"  style="overflow:visible;"/>
	</clipPath>
	<g class="st110">
		<rect x="317.5" y="266.3" class="st68" width="6.3" height="0.4"/>
		<rect x="317.5" y="266.3" class="st17" width="6.3" height="0.4"/>
	</g>
</g>
<g>
	<defs>
		<rect id="SVGID_213_" x="30.7" y="0.6" width="357.1" height="266.1"/>
	</defs>
	<clipPath id="SVGID_214_">
		<use xlink:href="#SVGID_213_"  style="overflow:visible;"/>
	</clipPath>
	<g class="st111">
		<rect x="323.8" y="266.4" class="st68" width="6.3" height="0.4"/>
		<rect x="323.8" y="266.4" class="st17" width="6.3" height="0.4"/>
	</g>
</g>
<g>
	<defs>
		<rect id="SVGID_215_" x="30.7" y="0.6" width="357.1" height="266.1"/>
	</defs>
	<clipPath id="SVGID_216_">
		<use xlink:href="#SVGID_215_"  style="overflow:visible;"/>
	</clipPath>
	<g class="st112">
		<rect x="330.1" y="266.5" class="st68" width="6.3" height="0.3"/>
		<rect x="330.1" y="266.5" class="st17" width="6.3" height="0.3"/>
	</g>
</g>
<g>
	<defs>
		<rect id="SVGID_217_" x="30.7" y="0.6" width="357.1" height="266.1"/>
	</defs>
	<clipPath id="SVGID_218_">
		<use xlink:href="#SVGID_217_"  style="overflow:visible;"/>
	</clipPath>
	<g class="st113">
		<rect x="336.5" y="266.6" class="st68" width="6.3" height="0.1"/>
		<rect x="336.5" y="266.6" class="st17" width="6.3" height="0.1"/>
	</g>
</g>
<g>
	<defs>
		<rect id="SVGID_219_" x="30.7" y="0.6" width="357.1" height="266.1"/>
	</defs>
	<clipPath id="SVGID_220_">
		<use xlink:href="#SVGID_219_"  style="overflow:visible;"/>
	</clipPath>
	<g class="st114">
		<rect x="342.8" y="266.6" class="st68" width="6.3" height="0.1"/>
		<rect x="342.8" y="266.6" class="st17" width="6.3" height="0.1"/>
	</g>
</g>
<g>
	<defs>
		<rect id="SVGID_221_" x="30.7" y="0.6" width="357.1" height="266.1"/>
	</defs>
	<clipPath id="SVGID_222_">
		<use xlink:href="#SVGID_221_"  style="overflow:visible;"/>
	</clipPath>
	<g class="st115">
		<rect x="349.2" y="266.7" class="st68" width="6.3" height="0"/>
		<rect x="349.2" y="266.7" class="st17" width="6.3" height="0"/>
	</g>
</g>
<g>
	<defs>
		<rect id="SVGID_223_" x="30.7" y="0.6" width="357.1" height="266.1"/>
	</defs>
	<clipPath id="SVGID_224_">
		<use xlink:href="#SVGID_223_"  style="overflow:visible;"/>
	</clipPath>
	<g class="st116">
		<rect x="355.5" y="266.7" class="st68" width="6.3" height="0.1"/>
		<rect x="355.5" y="266.7" class="st17" width="6.3" height="0.1"/>
	</g>
</g>
<g>
	<defs>
		<rect id="SVGID_225_" x="30.7" y="0.6" width="357.1" height="266.1"/>
	</defs>
	<clipPath id="SVGID_226_">
		<use xlink:href="#SVGID_225_"  style="overflow:visible;"/>
	</clipPath>
	<g class="st117">
		<rect x="361.8" y="266.7" class="st68" width="6.3" height="0"/>
		<rect x="361.8" y="266.7" class="st17" width="6.3" height="0"/>
	</g>
</g>
<g>
	<defs>
		<rect id="SVGID_227_" x="30.7" y="0.6" width="357.1" height="266.1"/>
	</defs>
	<clipPath id="SVGID_228_">
		<use xlink:href="#SVGID_227_"  style="overflow:visible;"/>
	</clipPath>
	<polyline class="st118" points="47,266.7 49.5,264.9 52,231.2 54.5,110.3 57,13.3 59.5,14.7 62,60.6 64.5,101.4 67,130.1 
		69.5,153.1 72,171.7 74.5,182.9 77,187.8 79.5,193.4 82,207.8 84.5,227.2 87,242.8 89.5,253.2 92,259.3 94.5,262 99.5,264.3 
		102,265.2 117.1,266.3 119.6,266.3 127.1,266.7 132.1,266.5 137.1,266.7 147.1,266.7 152.1,266.3 154.6,265.9 157.1,264.7 
		159.6,263 162.1,259.2 164.6,255.8 167.1,253.1 169.6,252.5 174.6,259.2 177.1,261.7 179.6,262.9 182.1,263.7 184.6,264.8 
		187.1,265.4 189.6,265.2 192.1,265.2 197.1,265.7 199.7,265.8 202.2,266 204.7,265.8 207.2,265.9 209.7,265.9 212.2,266.1 
		219.7,266.3 222.2,266.2 229.7,266.3 232.2,266.2 239.7,266.1 242.2,266.1 244.7,266.2 247.2,266.1 254.7,266.4 262.2,266.3 
		264.7,266.2 274.7,266.3 277.2,266.4 279.7,266.3 282.2,266.4 287.2,266.4 289.8,266.3 292.3,266.5 294.8,266.3 304.8,266.6 
		309.8,266.5 312.3,266.6 317.3,266.6 322.3,266.5 324.8,266.4 327.3,266.6 362.3,266.7 364.8,266.5 	"/>
</g>
<g>
	<defs>
		<rect id="SVGID_229_" x="30.7" y="0.6" width="357.1" height="266.1"/>
	</defs>
	<clipPath id="SVGID_230_">
		<use xlink:href="#SVGID_229_"  style="overflow:visible;"/>
	</clipPath>
	<polyline class="st119" points="47.8,266.7 50.4,266.6 52.9,264.1 55.5,254.4 58,239.4 60.6,217.1 63.1,191.2 68.2,136 73.3,91.1 
		75.9,83.1 78.4,85.6 81,105 83.5,132.3 86.1,163.2 88.6,183.7 91.2,195.6 93.7,215 98.8,245.7 101.4,255.9 103.9,260.9 106.5,263 
		109,264.3 111.6,265.2 119.2,266.2 124.3,266.3 126.9,266.5 129.4,266.5 132,266.3 134.5,266.3 137.1,266.3 139.6,266 142.2,266.1 
		144.7,265.7 147.3,265.6 149.8,265 152.4,265 157.5,263.9 160,263.5 162.6,263.3 165.1,262.7 167.7,261.9 170.2,261.7 172.8,260.9 
		177.9,261.1 180.4,261.4 183,261.9 185.5,262.6 190.6,262.9 195.7,263.9 198.3,264.2 200.8,264.9 203.4,265.3 205.9,265.2 
		208.5,265.6 211,265.9 216.1,266.1 218.7,266 221.2,266.1 223.8,266 226.3,266.1 239.1,265.6 241.6,266.1 249.2,265.9 251.8,266 
		254.3,266 256.9,265.9 259.4,266.2 267.1,266.5 269.6,266.5 272.2,266.4 277.3,266.5 279.8,266.4 284.9,266.4 305.3,266.3 
		307.9,266.4 310.4,266.3 313,266.4 325.7,266.3 328.3,266.4 330.8,266.3 333.4,266.6 346.1,266.6 353.8,266.7 356.3,266.7 
		361.4,266.7 369.1,266.7 371.6,266.7 	"/>
</g>
<line class="st120" x1="30.7" y1="266.7" x2="30.7" y2="0.6"/>
<line class="st120" x1="387.9" y1="266.7" x2="387.9" y2="0.6"/>
<line class="st120" x1="30.7" y1="266.7" x2="387.9" y2="266.7"/>
<line class="st120" x1="30.7" y1="0.6" x2="387.9" y2="0.6"/>
<g>
	<path class="st121" d="M264.8,40.8h115.4c1.5,0,2.2-0.7,2.2-2.2V8.3c0-1.5-0.7-2.2-2.2-2.2H264.8c-1.5,0-2.2,0.7-2.2,2.2v30.3
		C262.6,40.1,263.3,40.8,264.8,40.8z"/>
	<path class="st122" d="M264.8,40.8h115.4c1.5,0,2.2-0.7,2.2-2.2V8.3c0-1.5-0.7-2.2-2.2-2.2H264.8c-1.5,0-2.2,0.7-2.2,2.2v30.3
		C262.6,40.1,263.3,40.8,264.8,40.8z"/>
</g>
<g>
	<rect x="267" y="10.7" class="st16" width="22" height="7.7"/>
	<rect x="267" y="10.7" class="st17" width="22" height="7.7"/>
</g>
<path class="st2" d="M304.3,15.6l1,0.3c-0.2,0.9-0.6,1.5-1.2,2c-0.6,0.4-1.3,0.7-2.1,0.7c-0.8,0-1.5-0.2-2.1-0.5
	c-0.5-0.3-0.9-0.8-1.2-1.5c-0.3-0.7-0.4-1.4-0.4-2.1c0-0.8,0.2-1.5,0.5-2.1c0.3-0.6,0.8-1.1,1.3-1.4c0.6-0.3,1.2-0.5,1.9-0.5
	c0.8,0,1.4,0.2,2,0.6c0.5,0.4,0.9,1,1.1,1.7l-1,0.2c-0.2-0.6-0.5-1-0.8-1.2c-0.4-0.3-0.8-0.4-1.3-0.4c-0.6,0-1.1,0.2-1.5,0.4
	c-0.4,0.3-0.7,0.7-0.9,1.2c-0.2,0.5-0.2,1-0.2,1.5c0,0.7,0.1,1.3,0.3,1.8c0.2,0.5,0.5,0.9,0.9,1.1c0.4,0.2,0.8,0.4,1.3,0.4
	c0.6,0,1.1-0.2,1.5-0.5C303.9,16.8,304.1,16.3,304.3,15.6"/>
<path class="st2" d="M307.2,15h3.2c0-0.5-0.2-0.8-0.4-1.1c-0.3-0.4-0.7-0.6-1.2-0.6c-0.5,0-0.8,0.2-1.1,0.5
	C307.4,14.1,307.2,14.5,307.2,15 M310.4,16.6l1,0.1c-0.2,0.6-0.5,1-0.9,1.4c-0.4,0.3-1,0.5-1.6,0.5c-0.8,0-1.5-0.3-2-0.8
	s-0.7-1.2-0.7-2.2c0-1,0.2-1.7,0.7-2.2c0.5-0.5,1.1-0.8,1.9-0.8c0.8,0,1.4,0.3,1.9,0.8s0.7,1.2,0.7,2.2c0,0.1,0,0.1,0,0.3h-4.3
	c0,0.6,0.2,1.1,0.5,1.4c0.3,0.3,0.7,0.5,1.2,0.5c0.4,0,0.7-0.1,0.9-0.3C310,17.3,310.2,17,310.4,16.6"/>
<path class="st2" d="M312.6,18.4v-5.7h0.9v0.8c0.4-0.6,1-0.9,1.8-0.9c0.3,0,0.7,0.1,0.9,0.2c0.3,0.1,0.5,0.3,0.6,0.5
	s0.2,0.4,0.3,0.7c0,0.2,0.1,0.5,0.1,0.9v3.5h-1v-3.5c0-0.4,0-0.7-0.1-0.9c-0.1-0.2-0.2-0.4-0.4-0.5c-0.2-0.1-0.4-0.2-0.7-0.2
	c-0.4,0-0.8,0.1-1.1,0.4c-0.3,0.3-0.4,0.8-0.4,1.5v3.1H312.6"/>
<path class="st2" d="M320.8,17.5l0.1,0.9c-0.3,0-0.5,0.1-0.7,0.1c-0.4,0-0.6-0.1-0.8-0.2c-0.2-0.1-0.3-0.3-0.4-0.4
	c-0.1-0.2-0.1-0.6-0.1-1.1v-3.3h-0.7v-0.8h0.7v-1.4l1-0.6v2h1v0.8h-1v3.3c0,0.3,0,0.5,0.1,0.5c0,0.1,0.1,0.1,0.2,0.2
	s0.2,0.1,0.3,0.1C320.5,17.6,320.6,17.6,320.8,17.5"/>
<path class="st2" d="M322.5,15h3.2c0-0.5-0.2-0.8-0.4-1.1c-0.3-0.4-0.7-0.6-1.2-0.6c-0.5,0-0.8,0.2-1.1,0.5
	C322.7,14.1,322.5,14.5,322.5,15 M325.7,16.6l1,0.1c-0.2,0.6-0.5,1-0.9,1.4c-0.4,0.3-1,0.5-1.6,0.5c-0.8,0-1.5-0.3-2-0.8
	s-0.7-1.2-0.7-2.2c0-1,0.2-1.7,0.7-2.2c0.5-0.5,1.1-0.8,1.9-0.8c0.8,0,1.4,0.3,1.9,0.8s0.7,1.2,0.7,2.2c0,0.1,0,0.1,0,0.3h-4.3
	c0,0.6,0.2,1.1,0.5,1.4c0.3,0.3,0.7,0.5,1.2,0.5c0.4,0,0.7-0.1,0.9-0.3C325.3,17.3,325.5,17,325.7,16.6"/>
<path class="st2" d="M327.9,18.4v-5.7h0.9v0.9c0.2-0.4,0.4-0.7,0.6-0.8c0.2-0.1,0.4-0.2,0.6-0.2c0.3,0,0.7,0.1,1,0.3l-0.3,0.9
	c-0.2-0.1-0.5-0.2-0.7-0.2c-0.2,0-0.4,0.1-0.6,0.2c-0.2,0.1-0.3,0.3-0.4,0.5c-0.1,0.4-0.2,0.7-0.2,1.1v3H327.9"/>
<path class="st2" d="M331.2,16.7l1-0.1c0,0.4,0.2,0.7,0.4,0.9s0.6,0.3,1,0.3s0.8-0.1,1-0.3c0.2-0.2,0.3-0.4,0.3-0.6
	c0-0.2-0.1-0.4-0.3-0.5c-0.1-0.1-0.5-0.2-1-0.3c-0.7-0.2-1.2-0.3-1.5-0.5c-0.3-0.1-0.5-0.3-0.6-0.5c-0.1-0.2-0.2-0.5-0.2-0.8
	c0-0.3,0.1-0.5,0.2-0.7c0.1-0.2,0.3-0.4,0.5-0.5c0.2-0.1,0.4-0.2,0.6-0.3c0.3-0.1,0.5-0.1,0.8-0.1c0.4,0,0.8,0.1,1.2,0.2
	c0.3,0.1,0.6,0.3,0.8,0.5c0.2,0.2,0.3,0.5,0.3,0.9l-0.9,0.1c0-0.3-0.2-0.5-0.4-0.7c-0.2-0.2-0.5-0.3-0.9-0.3c-0.5,0-0.8,0.1-1,0.2
	c-0.2,0.2-0.3,0.3-0.3,0.5c0,0.1,0,0.2,0.1,0.3c0.1,0.1,0.2,0.2,0.4,0.3c0.1,0,0.4,0.1,0.8,0.3c0.7,0.2,1.2,0.3,1.4,0.4
	c0.3,0.1,0.5,0.3,0.6,0.5s0.2,0.5,0.2,0.8c0,0.3-0.1,0.6-0.3,0.9s-0.5,0.5-0.8,0.6c-0.4,0.2-0.8,0.2-1.2,0.2c-0.7,0-1.3-0.1-1.7-0.5
	C331.5,17.8,331.3,17.3,331.2,16.7"/>
<path class="st2" d="M340.7,15.6c0,0.7,0.2,1.3,0.5,1.6c0.3,0.4,0.7,0.5,1.2,0.5c0.5,0,0.9-0.2,1.2-0.5c0.3-0.4,0.5-0.9,0.5-1.7
	c0-0.7-0.2-1.2-0.5-1.6c-0.3-0.4-0.7-0.5-1.2-0.5c-0.5,0-0.9,0.2-1.2,0.5C340.9,14.3,340.7,14.8,340.7,15.6 M339.7,15.6
	c0-1.1,0.3-1.8,0.9-2.4c0.5-0.4,1.1-0.6,1.8-0.6c0.8,0,1.4,0.3,1.9,0.8c0.5,0.5,0.7,1.2,0.7,2.1c0,0.7-0.1,1.3-0.3,1.7s-0.5,0.7-1,1
	c-0.4,0.2-0.9,0.3-1.4,0.3c-0.8,0-1.5-0.3-1.9-0.8C340,17.3,339.7,16.5,339.7,15.6"/>
<path class="st2" d="M346.5,18.4v-5h-0.9v-0.8h0.9v-0.6c0-0.4,0-0.7,0.1-0.8c0.1-0.3,0.3-0.5,0.5-0.6c0.2-0.2,0.6-0.2,1-0.2
	c0.3,0,0.6,0,0.9,0.1l-0.2,0.8c-0.2,0-0.4,0-0.6,0c-0.3,0-0.5,0.1-0.6,0.2c-0.1,0.1-0.2,0.4-0.2,0.7v0.5h1.1v0.8h-1.1v5H346.5"/>
<path class="st2" d="M352.4,18.4v-7.9h1.6l1.9,5.6c0.2,0.5,0.3,0.9,0.4,1.2c0.1-0.3,0.2-0.7,0.4-1.3l1.9-5.5h1.4v7.9h-1v-6.6
	l-2.3,6.6h-0.9l-2.3-6.7v6.7H352.4"/>
<path class="st2" d="M365.1,15.5c-0.4,0.1-0.9,0.3-1.6,0.4c-0.4,0.1-0.7,0.1-0.8,0.2c-0.2,0.1-0.3,0.2-0.4,0.3
	c-0.1,0.1-0.1,0.3-0.1,0.5c0,0.3,0.1,0.5,0.3,0.6s0.5,0.3,0.9,0.3s0.7-0.1,1-0.2c0.3-0.2,0.5-0.4,0.6-0.7c0.1-0.2,0.2-0.5,0.2-1
	V15.5 M365.2,17.7c-0.4,0.3-0.7,0.5-1,0.6c-0.3,0.1-0.7,0.2-1.1,0.2c-0.6,0-1.1-0.1-1.4-0.5c-0.3-0.3-0.5-0.7-0.5-1.2
	c0-0.3,0.1-0.5,0.2-0.8c0.1-0.2,0.3-0.4,0.5-0.6c0.2-0.1,0.4-0.2,0.7-0.3c0.2,0,0.5-0.1,0.9-0.1c0.8-0.1,1.4-0.2,1.7-0.3
	c0-0.1,0-0.2,0-0.3c0-0.4-0.1-0.7-0.3-0.8c-0.3-0.2-0.6-0.3-1.1-0.3c-0.5,0-0.8,0.1-1,0.2c-0.2,0.2-0.4,0.5-0.5,0.8l-0.9-0.1
	c0.1-0.4,0.2-0.7,0.4-1c0.2-0.2,0.5-0.4,0.8-0.6c0.4-0.1,0.8-0.2,1.3-0.2c0.5,0,0.9,0.1,1.2,0.2c0.3,0.1,0.5,0.3,0.7,0.4
	c0.1,0.2,0.2,0.4,0.3,0.6c0,0.2,0.1,0.5,0.1,0.9V16c0,0.9,0,1.5,0.1,1.7s0.1,0.5,0.3,0.7h-1C365.3,18.2,365.2,18,365.2,17.7"/>
<path class="st2" d="M367.2,16.7l1-0.1c0,0.4,0.2,0.7,0.4,0.9s0.6,0.3,1,0.3s0.8-0.1,1-0.3c0.2-0.2,0.3-0.4,0.3-0.6
	c0-0.2-0.1-0.4-0.3-0.5c-0.1-0.1-0.5-0.2-1-0.3c-0.7-0.2-1.2-0.3-1.5-0.5c-0.3-0.1-0.5-0.3-0.6-0.5c-0.1-0.2-0.2-0.5-0.2-0.8
	c0-0.3,0.1-0.5,0.2-0.7c0.1-0.2,0.3-0.4,0.5-0.5c0.2-0.1,0.4-0.2,0.6-0.3c0.3-0.1,0.5-0.1,0.8-0.1c0.4,0,0.8,0.1,1.2,0.2
	c0.3,0.1,0.6,0.3,0.8,0.5c0.2,0.2,0.3,0.5,0.3,0.9l-0.9,0.1c0-0.3-0.2-0.5-0.4-0.7c-0.2-0.2-0.5-0.3-0.9-0.3c-0.5,0-0.8,0.1-1,0.2
	c-0.2,0.2-0.3,0.3-0.3,0.5c0,0.1,0,0.2,0.1,0.3c0.1,0.1,0.2,0.2,0.4,0.3c0.1,0,0.4,0.1,0.8,0.3c0.7,0.2,1.2,0.3,1.4,0.4
	c0.3,0.1,0.5,0.3,0.6,0.5s0.2,0.5,0.2,0.8c0,0.3-0.1,0.6-0.3,0.9s-0.5,0.5-0.8,0.6c-0.4,0.2-0.8,0.2-1.2,0.2c-0.7,0-1.3-0.1-1.7-0.5
	C367.6,17.8,367.3,17.3,367.2,16.7"/>
<path class="st2" d="M372.7,16.7l1-0.1c0,0.4,0.2,0.7,0.4,0.9s0.6,0.3,1,0.3s0.8-0.1,1-0.3c0.2-0.2,0.3-0.4,0.3-0.6
	c0-0.2-0.1-0.4-0.3-0.5c-0.1-0.1-0.5-0.2-1-0.3c-0.7-0.2-1.2-0.3-1.5-0.5c-0.3-0.1-0.5-0.3-0.6-0.5c-0.1-0.2-0.2-0.5-0.2-0.8
	c0-0.3,0.1-0.5,0.2-0.7c0.1-0.2,0.3-0.4,0.5-0.5c0.2-0.1,0.4-0.2,0.6-0.3c0.3-0.1,0.5-0.1,0.8-0.1c0.4,0,0.8,0.1,1.2,0.2
	c0.3,0.1,0.6,0.3,0.8,0.5c0.2,0.2,0.3,0.5,0.3,0.9l-0.9,0.1c0-0.3-0.2-0.5-0.4-0.7c-0.2-0.2-0.5-0.3-0.9-0.3c-0.5,0-0.8,0.1-1,0.2
	c-0.2,0.2-0.3,0.3-0.3,0.5c0,0.1,0,0.2,0.1,0.3c0.1,0.1,0.2,0.2,0.4,0.3c0.1,0,0.4,0.1,0.8,0.3c0.7,0.2,1.2,0.3,1.4,0.4
	c0.3,0.1,0.5,0.3,0.6,0.5s0.2,0.5,0.2,0.8c0,0.3-0.1,0.6-0.3,0.9s-0.5,0.5-0.8,0.6c-0.4,0.2-0.8,0.2-1.2,0.2c-0.7,0-1.3-0.1-1.7-0.5
	C373.1,17.8,372.8,17.3,372.7,16.7"/>
<g>
	<rect x="267" y="26.4" class="st68" width="22" height="7.7"/>
	<rect x="267" y="26.4" class="st17" width="22" height="7.7"/>
</g>
<path class="st2" d="M299.4,30.3c0,0.9,0.3,1.7,0.8,2.2c0.5,0.5,1.2,0.8,1.9,0.8c0.8,0,1.4-0.3,1.9-0.8c0.5-0.5,0.8-1.3,0.8-2.3
	c0-0.6-0.1-1.2-0.3-1.7c-0.2-0.5-0.5-0.8-0.9-1.1s-0.9-0.4-1.4-0.4c-0.7,0-1.4,0.3-1.9,0.8C299.7,28.3,299.4,29.1,299.4,30.3
	 M298.3,30.3c0-1.3,0.4-2.3,1.1-3.1c0.7-0.7,1.6-1.1,2.7-1.1c0.7,0,1.4,0.2,2,0.5s1,0.8,1.3,1.5c0.3,0.6,0.5,1.3,0.5,2.1
	c0,0.8-0.2,1.5-0.5,2.1c-0.3,0.6-0.8,1.1-1.4,1.4c-0.6,0.3-1.2,0.5-1.9,0.5c-0.7,0-1.4-0.2-2-0.5c-0.6-0.4-1-0.8-1.3-1.5
	C298.5,31.6,298.3,31,298.3,30.3"/>
<path class="st2" d="M306.4,34.1l2.1-3l-1.9-2.7h1.2l0.9,1.3c0.2,0.3,0.3,0.5,0.4,0.6c0.2-0.2,0.3-0.4,0.4-0.6l1-1.4h1.2l-2,2.7
	l2.1,3h-1.2l-1.2-1.8l-0.3-0.5l-1.5,2.3H306.4"/>
<path class="st2" d="M312.6,36.3l-0.1-0.9c0.2,0.1,0.4,0.1,0.6,0.1c0.2,0,0.4,0,0.5-0.1c0.1-0.1,0.2-0.2,0.3-0.3
	c0.1-0.1,0.2-0.3,0.3-0.7c0-0.1,0-0.1,0.1-0.2l-2.2-5.7h1l1.2,3.3c0.2,0.4,0.3,0.9,0.4,1.3c0.1-0.4,0.2-0.9,0.4-1.3l1.2-3.3h1
	l-2.2,5.8c-0.2,0.6-0.4,1-0.5,1.3c-0.2,0.3-0.4,0.5-0.6,0.7c-0.2,0.1-0.5,0.2-0.8,0.2C313,36.4,312.8,36.4,312.6,36.3"/>
<path class="st2" d="M318.7,31.1c0,0.7,0.1,1.3,0.4,1.6c0.3,0.4,0.7,0.5,1.1,0.5c0.4,0,0.8-0.2,1.1-0.5c0.3-0.3,0.5-0.9,0.5-1.6
	c0-0.7-0.2-1.2-0.5-1.6c-0.3-0.4-0.7-0.5-1.1-0.5c-0.4,0-0.8,0.2-1.1,0.5C318.9,29.9,318.7,30.5,318.7,31.1 M317.9,34.6l0.9,0.1
	c0,0.3,0.2,0.5,0.3,0.6c0.2,0.2,0.6,0.3,1,0.3c0.4,0,0.8-0.1,1-0.3s0.4-0.4,0.5-0.7c0-0.2,0.1-0.6,0.1-1.2c-0.4,0.5-1,0.7-1.6,0.7
	c-0.8,0-1.4-0.3-1.8-0.8c-0.4-0.6-0.6-1.2-0.6-2c0-0.5,0.1-1,0.3-1.5s0.5-0.8,0.9-1.1c0.4-0.2,0.8-0.4,1.3-0.4
	c0.7,0,1.2,0.3,1.7,0.8v-0.7h0.9v4.9c0,0.9-0.1,1.5-0.3,1.9s-0.5,0.7-0.9,0.9c-0.4,0.2-0.9,0.3-1.4,0.3c-0.7,0-1.2-0.2-1.6-0.5
	C318.1,35.6,317.9,35.2,317.9,34.6"/>
<path class="st2" d="M324.9,30.7h3.2c0-0.5-0.2-0.8-0.4-1.1c-0.3-0.4-0.7-0.6-1.2-0.6c-0.5,0-0.8,0.2-1.1,0.5
	C325.1,29.8,325,30.2,324.9,30.7 M328.1,32.3l1,0.1c-0.2,0.6-0.5,1-0.9,1.4c-0.4,0.3-1,0.5-1.6,0.5c-0.8,0-1.5-0.3-2-0.8
	s-0.7-1.2-0.7-2.2c0-1,0.2-1.7,0.7-2.2c0.5-0.5,1.1-0.8,1.9-0.8c0.8,0,1.4,0.3,1.9,0.8s0.7,1.2,0.7,2.2c0,0.1,0,0.1,0,0.3h-4.3
	c0,0.6,0.2,1.1,0.5,1.4c0.3,0.3,0.7,0.5,1.2,0.5c0.4,0,0.7-0.1,0.9-0.3C327.8,33,328,32.7,328.1,32.3"/>
<path class="st2" d="M330.3,34.1v-5.7h0.9v0.8c0.4-0.6,1-0.9,1.8-0.9c0.3,0,0.7,0.1,0.9,0.2c0.3,0.1,0.5,0.3,0.6,0.5
	s0.2,0.4,0.3,0.7c0,0.2,0.1,0.5,0.1,0.9v3.5h-1v-3.5c0-0.4,0-0.7-0.1-0.9c-0.1-0.2-0.2-0.4-0.4-0.5c-0.2-0.1-0.4-0.2-0.7-0.2
	c-0.4,0-0.8,0.1-1.1,0.4c-0.3,0.3-0.4,0.8-0.4,1.5v3.1H330.3"/>
<path class="st2" d="M337.2,30.7h3.2c0-0.5-0.2-0.8-0.4-1.1c-0.3-0.4-0.7-0.6-1.2-0.6c-0.5,0-0.8,0.2-1.1,0.5
	C337.4,29.8,337.2,30.2,337.2,30.7 M340.3,32.3l1,0.1c-0.2,0.6-0.5,1-0.9,1.4c-0.4,0.3-1,0.5-1.6,0.5c-0.8,0-1.5-0.3-2-0.8
	s-0.7-1.2-0.7-2.2c0-1,0.2-1.7,0.7-2.2c0.5-0.5,1.1-0.8,1.9-0.8c0.8,0,1.4,0.3,1.9,0.8s0.7,1.2,0.7,2.2c0,0.1,0,0.1,0,0.3h-4.3
	c0,0.6,0.2,1.1,0.5,1.4c0.3,0.3,0.7,0.5,1.2,0.5c0.4,0,0.7-0.1,0.9-0.3C340,33,340.2,32.7,340.3,32.3"/>
<path class="st2" d="M342.2,32.4l1-0.1c0,0.4,0.2,0.7,0.4,0.9s0.6,0.3,1,0.3s0.8-0.1,1-0.3c0.2-0.2,0.3-0.4,0.3-0.6
	c0-0.2-0.1-0.4-0.3-0.5c-0.1-0.1-0.5-0.2-1-0.3c-0.7-0.2-1.2-0.3-1.5-0.5c-0.3-0.1-0.5-0.3-0.6-0.5c-0.1-0.2-0.2-0.5-0.2-0.8
	c0-0.3,0.1-0.5,0.2-0.7c0.1-0.2,0.3-0.4,0.5-0.5c0.2-0.1,0.4-0.2,0.6-0.3c0.3-0.1,0.5-0.1,0.8-0.1c0.4,0,0.8,0.1,1.2,0.2
	c0.3,0.1,0.6,0.3,0.8,0.5c0.2,0.2,0.3,0.5,0.3,0.9l-0.9,0.1c0-0.3-0.2-0.5-0.4-0.7c-0.2-0.2-0.5-0.3-0.9-0.3c-0.5,0-0.8,0.1-1,0.2
	c-0.2,0.2-0.3,0.3-0.3,0.5c0,0.1,0,0.2,0.1,0.3c0.1,0.1,0.2,0.2,0.4,0.3c0.1,0,0.4,0.1,0.8,0.3c0.7,0.2,1.2,0.3,1.4,0.4
	c0.3,0.1,0.5,0.3,0.6,0.5s0.2,0.5,0.2,0.8c0,0.3-0.1,0.6-0.3,0.9s-0.5,0.5-0.8,0.6c-0.4,0.2-0.8,0.2-1.2,0.2c-0.7,0-1.3-0.1-1.7-0.5
	C342.5,33.5,342.3,33,342.2,32.4"/>
</svg>
